<svg width="512" height="512" version="1.1" xmlns="http://www.w3.org/2000/svg" desc="Created with imagetracer.js version 1.2.6" ><path fill="rgb(33,33,33)" stroke="rgb(33,33,33)" stroke-width="1" opacity="0.996078431372549" d="M 0 0 L 511.5 0 L 512 2 L 509.5 3 L 0 3 L 0 0 Z " /><path fill="rgb(33,33,33)" stroke="rgb(33,33,33)" stroke-width="1" opacity="0.996078431372549" d="M 240.5 31 L 271.5 31 Q 278 34.5 289.5 33 L 293.5 35 L 300.5 35 Q 303.2 37.8 309.5 37 L 312.5 39 L 317.5 39 L 319.5 41 L 323.5 41 L 326.5 43 L 335.5 45 L 337.5 47 L 340.5 47 L 342.5 49 L 345.5 49 L 365.5 59 L 387.5 73 Q 409.4 89.1 427 109.5 L 451 142.5 L 453 148.5 L 461 161.5 L 461 164.5 L 463 166.5 L 463 169.5 L 465 171.5 L 467 179.5 L 471 187.5 L 473 198.5 L 475 200.5 Q 474 207.5 477 210.5 L 477 217.5 L 479 220.5 L 479 228.5 L 481 237.5 L 481 274.5 L 480 275.5 L 479 291.5 L 477 294.5 L 477 302.5 Q 474.2 305.2 475 311.5 Q 472.2 313.2 473 318.5 L 471 320.5 L 471 325.5 L 469 327.5 Q 469.8 331.8 467 332.5 L 467 336.5 L 465 338.5 L 465 341.5 L 463 343.5 L 461 350.5 L 453 363.5 L 451 369.5 L 437 390.5 Q 423.8 408.3 407.5 423 L 401 427 Q 402.1 429.7 399.5 429 L 390.5 437 L 369.5 451 L 354.5 459 L 324.5 471 L 320.5 471 L 317.5 473 L 313.5 473 L 310.5 475 Q 304.2 474.2 301.5 477 Q 294.1 476.1 290.5 479 L 280.5 479 L 274.5 481 L 238.5 481 L 232.5 479 L 221.5 479 L 217.5 477 L 202.5 475 L 199.5 473 L 194.5 473 L 191.5 471 L 176.5 467 L 174.5 465 L 171.5 465 L 169.5 463 L 150.5 455 L 130.5 443 L 107 425 Q 108.1 422.3 105.5 423 Q 88.7 407.8 75 389.5 L 61 368.5 L 49 344.5 L 47 336.5 L 43 328.5 L 43 324.5 L 41 322.5 L 41 318.5 L 39 316.5 L 37 302.5 L 35 299.5 Q 35.9 291.1 33 286.5 L 33 270.5 L 31 263.5 L 31 248.5 L 33 241.5 L 33 225.5 Q 35.9 220.9 35 212.5 L 37 210.5 L 39 195.5 L 41 193.5 L 43 183.5 L 47 176.5 L 47 172.5 L 63 140.5 L 75 122.5 L 89 105 L 91 105 L 91 103 L 93 103 L 93 101 L 95 101 L 95 99 L 97 99 L 97 97 Q 99.7 98.1 99 95.5 L 103 93 Q 101.9 90.3 104.5 91 L 122.5 75 L 140.5 63 L 167.5 49 L 183.5 43 L 186.5 43 L 188.5 41 Q 193.8 41.8 195.5 39 L 200.5 39 L 203.5 37 L 208.5 37 L 212.5 35 Q 219.9 35.9 223.5 33 L 234.5 33 L 240.5 31 Z M 248 32 L 247 33 L 237 33 L 236 34 L 226 34 L 220 36 L 214 36 L 210 38 L 205 38 L 194 42 L 190 42 L 169 50 Q 134 65 109 88 L 78 121 L 62 145 L 54 160 L 40 197 L 38 211 L 36 215 L 36 222 L 34 229 L 34 242 L 33 243 L 33 270 L 34 271 L 34 284 L 36 291 L 36 298 L 40 311 L 40 316 Q 45 323 46 334 L 62 368 Q 72 386 86 402 Q 112 432 148 452 L 173 464 L 193 470 L 196 472 L 209 474 L 213 476 L 242 479 L 243 480 L 271 480 L 280 478 L 289 478 L 295 476 L 301 476 L 305 474 L 310 474 L 336 466 L 376 446 L 405 424 Q 423 408 438 388 L 452 366 L 462 346 L 474 311 L 476 295 L 478 291 L 479 272 L 480 271 L 480 242 L 479 241 L 479 232 L 472 195 L 464 175 L 464 172 L 462 170 L 454 151 Q 444 131 430 116 Q 431 113 428 114 L 424 108 L 400 84 Q 397 85 398 82 L 358 56 L 335 46 L 309 38 L 304 38 L 287 34 L 267 33 L 266 32 L 248 32 Z " /><path fill="rgb(33,33,33)" stroke="rgb(33,33,33)" stroke-width="1" opacity="0.996078431372549" d="M 239.5 41 L 272.5 41 L 273.5 42 L 284.5 42 L 290.5 44 L 306.5 46 L 332.5 54 Q 354.8 62.7 373.5 75 L 386.5 84 L 408.5 104 L 410 104 L 434 133.5 L 450 160.5 L 458 178.5 L 460 187.5 L 462 189.5 L 462 193.5 L 468 212.5 L 468 219.5 L 470 224.5 L 470 233.5 L 472 242.5 L 468.5 244 L 463 239.5 L 461 228 Q 455.3 229 453 225.5 L 452 218.5 Q 454.5 217 453 211.5 L 420 178.5 L 420 175.5 Q 423.5 175 423 170.5 L 416 166 L 416 164 Q 413.3 165.1 414 162.5 L 395.5 142 L 388.5 138 L 376.5 136 Q 375.2 138.3 370.5 137 Q 360.2 127.8 346.5 122 L 318.5 112 L 313.5 112 L 309.5 110 L 303.5 110 L 298.5 108 L 290.5 108 L 282.5 106 L 247.5 106 L 215.5 112 L 200.5 118 L 182 130 L 182 132 Q 179.3 130.9 180 133.5 L 173.5 140 L 163.5 144 L 145 158 L 144 162 L 153.5 163 L 172.5 155 L 184 171.5 L 184 174 L 180 176.5 L 176.5 181 Q 176.8 173.7 171.5 172 L 155.5 164 L 152.5 164 L 120.5 180 Q 102.4 189.9 90 205.5 L 82 218.5 L 78 229.5 L 76 239.5 L 76 251.5 L 88 291.5 Q 93.2 303.8 102.5 312 Q 104.8 315 110 314 L 112 298.5 L 110 288.5 L 110 278 L 146.5 276 L 152.5 274 L 157.5 274 L 170 270 L 172 262.5 L 176 257 L 188 247.5 Q 190.6 246.1 190 241.5 L 187.5 240 L 165.5 246 L 128.5 262 L 107 268 L 113.5 260 L 126.5 254 L 138.5 254 Q 147.1 244.1 161.5 240 L 168.5 238 L 174.5 238 L 179.5 236 L 185.5 236 L 190.5 234 L 196.5 234 L 214 228 Q 215.3 224.7 210.5 226 L 194.5 222 L 184 213.5 Q 175.8 204.2 176 186.5 L 181 184 L 182 194.5 L 188 206 L 199.5 212 L 210.5 212 L 220 208 L 217.5 212 L 212 215.5 Q 210.5 219.9 213.5 219 L 214.5 220 L 223.5 220 L 230.5 217 L 234.5 220 L 241.5 222 L 259.5 222 L 260.5 221 Q 269.4 222.4 274.5 220 L 285.5 222 L 291 226.5 L 290.5 228 L 255.5 228 L 246.5 226 L 232 226 Q 230.8 231.1 234 232.5 L 232.5 234 L 211.5 234 L 206 238.5 L 207.5 241 L 209.5 242 L 224.5 242 L 225.5 241 L 247.5 240 L 248.5 241 L 260.5 242 L 262 243.5 Q 262.9 246.5 258.5 245 L 257.5 246 L 240.5 246 L 239.5 247 L 211.5 248 L 205.5 250 L 200.5 250 L 194 253.5 L 194 257.5 Q 197.6 259.4 197 264 Q 188.3 265.9 184 273.5 L 176.5 282 L 172.5 283 L 167 282 L 180 323.5 L 190 344.5 L 190 349.5 Q 187.3 352.8 188 359.5 L 186 361.5 L 186 364.5 L 182 372.5 L 169.5 388 L 166.5 389 Q 163.8 384.5 156 386 L 155 388.5 Q 160.1 392.9 158 404.5 L 155.5 406 L 148.5 400 L 146 403.5 L 152 412.5 L 153 419.5 L 138.5 426 L 133.5 431 L 130.5 431 Q 112 418 97 401.5 L 74 371.5 L 58 341.5 L 54 328.5 L 52 326.5 L 50 315.5 L 46 305.5 L 46 299.5 L 44 295.5 Q 44.9 288.1 42 284.5 L 41 241.5 L 42 240.5 L 42 227.5 L 44 223.5 L 46 206.5 L 48 203.5 L 48 199.5 L 50 196.5 L 50 192.5 L 56 175.5 L 70 147.5 L 90 118 Q 92.7 119.1 92 116.5 L 108.5 99 L 118 92 Q 116.9 89.3 119.5 90 L 140.5 74 L 170.5 58 L 206.5 46 L 211.5 46 L 215.5 44 Q 223.9 44.9 228.5 42 L 238.5 42 L 239.5 41 Z M 245 42 L 244 43 L 229 43 L 225 45 L 217 45 Q 214 48 207 47 L 205 49 L 200 49 L 197 51 L 193 51 L 184 55 L 181 55 L 179 57 L 176 57 L 148 71 L 115 95 Q 81 124 61 167 L 61 170 L 57 176 L 55 185 L 53 187 L 51 198 L 49 200 L 49 205 L 47 208 Q 48 215 45 218 L 45 225 L 43 228 L 43 250 L 42 251 L 43 285 L 45 288 L 45 295 Q 48 298 47 305 Q 50 307 49 313 L 51 315 L 53 327 L 55 329 L 57 337 L 61 343 L 61 346 L 67 358 L 77 373 L 77 375 L 81 379 Q 80 382 83 381 Q 91 395 103 406 Q 102 408 105 407 L 105 409 L 131 430 L 134 429 Q 136 430 135 427 L 146 421 L 151 420 L 151 414 L 145 404 Q 144 399 148 399 L 152 400 L 155 405 L 157 404 Q 159 393 154 390 Q 154 386 157 385 L 164 385 Q 164 388 169 387 L 181 373 L 185 362 L 187 360 Q 186 352 189 349 L 189 345 L 185 339 L 181 327 L 179 325 L 177 316 L 175 314 L 173 304 L 171 302 L 166 284 L 167 281 L 177 281 L 179 277 L 181 277 L 187 269 L 194 263 L 196 263 L 193 259 L 193 253 L 200 249 Q 207 250 210 247 L 224 247 L 233 245 L 257 245 L 260 244 L 253 242 L 233 242 L 232 243 L 208 243 L 205 241 L 206 237 L 211 233 L 233 233 L 230 228 L 232 225 Q 247 223 257 227 L 289 227 L 289 225 L 280 222 L 265 222 L 264 223 L 240 223 L 233 219 Q 226 218 225 221 L 214 221 L 211 219 L 212 214 L 199 213 L 191 209 L 183 201 L 181 196 L 180 186 L 177 188 L 179 203 L 183 211 L 195 221 Q 199 220 200 223 L 211 224 L 213 224 L 216 227 L 211 231 L 201 233 L 198 235 Q 191 234 188 237 L 180 237 L 177 239 L 170 239 Q 168 242 162 241 L 152 245 L 147 249 L 142 253 L 141 255 L 165 245 L 186 239 Q 190 238 191 241 L 191 246 L 187 251 L 181 255 L 173 264 L 172 269 L 166 273 L 159 275 L 153 275 L 150 277 Q 138 276 131 279 L 111 279 L 111 287 L 113 294 Q 115 309 109 316 L 105 315 Q 93 306 87 293 L 85 288 L 85 284 L 81 276 L 79 263 L 77 261 Q 78 255 75 254 L 75 238 Q 78 235 77 229 L 79 227 L 79 224 L 83 215 L 91 203 L 106 189 Q 108 190 107 187 L 124 177 L 149 165 L 145 163 L 143 160 Q 155 146 174 139 L 175 137 L 193 121 L 205 115 L 222 109 Q 228 110 231 107 L 239 107 L 244 105 L 286 105 L 292 107 L 301 107 L 305 109 L 312 109 Q 314 112 320 111 L 348 121 L 370 135 L 383 135 Q 384 138 390 137 L 401 146 Q 400 148 403 147 L 411 159 L 425 171 L 423 175 L 421 175 L 421 179 L 423 179 L 435 192 Q 434 194 437 193 L 437 195 L 439 195 L 439 197 L 450 207 Q 452 206 451 209 L 453 209 L 455 213 L 453 219 L 453 224 Q 454 228 461 227 L 463 230 L 463 238 L 465 241 L 471 243 L 469 236 L 469 226 L 467 222 L 467 213 L 465 210 L 465 205 Q 462 203 463 198 L 461 195 L 461 190 L 457 183 L 457 179 L 453 173 L 453 170 L 443 150 L 429 129 L 415 113 Q 416 110 413 111 L 413 110 L 403 99 Q 400 100 401 97 L 381 81 L 359 67 L 332 55 L 329 55 L 327 53 L 323 53 L 321 51 Q 315 52 314 49 L 309 49 L 306 47 Q 299 48 297 45 L 289 45 L 284 43 L 245 42 Z M 170 157 L 157 164 L 173 171 L 177 177 L 183 173 L 175 160 Q 174 156 170 157 Z M 128 255 Q 126 258 121 257 L 115 261 Q 112 260 113 263 L 109 266 L 110 267 L 140 256 L 128 255 Z " /><path fill="rgb(33,33,33)" stroke="rgb(33,33,33)" stroke-width="1" opacity="0.996078431372549" d="M 266.5 151 L 269.5 151 L 282.5 160 L 312 170.5 L 296 183.5 L 292.5 188 L 289 186.5 L 288 183 L 266.5 192 Q 261.8 190.7 260.5 193 L 242.5 193 L 229.5 190 L 226 186.5 L 222.5 180 Q 216.9 173.6 202.5 176 L 184 182 Q 183.4 175.6 186 172 Q 196.6 167.3 204.5 159 L 207 164 L 209.5 165 L 230.5 158 L 236.5 158 L 240.5 156 L 246.5 156 L 266.5 151 Z M 268 152 Q 266 154 262 153 L 259 155 L 252 155 L 249 157 L 242 157 Q 239 160 232 159 L 229 161 L 224 161 Q 222 164 217 163 L 215 165 L 209 166 L 205 161 L 187 173 L 185 178 L 186 181 L 188 179 Q 193 180 194 177 L 199 177 L 202 175 L 217 175 L 221 177 L 227 185 L 227 187 L 237 191 Q 243 189 245 192 L 267 191 L 288 181 L 292 187 Q 294 188 293 186 Q 298 177 308 173 L 309 171 L 290 163 L 287 163 L 268 152 Z " /><path fill="rgb(33,33,33)" stroke="rgb(33,33,33)" stroke-width="1" opacity="0.996078431372549" d="M 268.5 160 L 284 168.5 Q 286.3 171.7 285 178.5 Q 282 183.5 275.5 185 L 260.5 186 L 259.5 185 L 245.5 185 Q 242.8 182.2 236.5 183 L 234 180.5 L 235.5 177 L 238.5 175 L 262.5 175 L 265 172.5 L 266 162.5 L 268.5 160 Z M 267 162 L 267 172 L 266 174 L 263 176 L 240 176 L 238 177 L 236 181 L 238 182 L 248 184 L 263 184 L 264 185 Q 267 183 275 184 L 280 182 Q 286 180 284 171 Q 278 163 267 162 Z " /><path fill="rgb(33,33,33)" stroke="rgb(33,33,33)" stroke-width="1" opacity="0.996078431372549" d="M 0 509 L 509.5 509 L 512 510 L 511.5 512 L 0 512 L 0 509 Z " /><path fill="rgb(194,194,194)" stroke="rgb(194,194,194)" stroke-width="1" opacity="1" d="M 234.5 34 L 251 34.5 L 234.5 35 L 233.5 36 L 209.5 39 L 193.5 43 L 174.5 50 L 175.5 48 L 178.5 48 L 200.5 40 L 234.5 34 Z " /><path fill="rgb(194,194,194)" stroke="rgb(194,194,194)" stroke-width="1" opacity="1" d="M 262.5 34 L 278.5 34 L 285 35.5 L 279.5 36 L 278.5 35 L 262.5 35 L 262.5 34 Z " /><path fill="rgb(194,194,194)" stroke="rgb(194,194,194)" stroke-width="1" opacity="1" d="M 286.5 36 Q 293.9 35.1 298 37.5 L 294.5 38 Q 292.8 35.3 286.5 37 L 286.5 36 Z " /><path fill="rgb(194,194,194)" stroke="rgb(194,194,194)" stroke-width="1" opacity="1" d="M 299.5 38 L 303.5 38 L 315 41.5 L 312.5 42 L 303.5 39 L 299.5 39 L 299.5 38 Z " /><path fill="rgb(194,194,194)" stroke="rgb(194,194,194)" stroke-width="1" opacity="1" d="M 237.5 39 L 275 39.5 L 237.5 40 L 237.5 39 Z " /><path fill="rgb(194,194,194)" stroke="rgb(194,194,194)" stroke-width="1" opacity="1" d="M 229.5 40 L 236 40.5 L 217.5 43 L 217.5 42 L 228.5 41 L 229.5 40 Z " /><path fill="rgb(194,194,194)" stroke="rgb(194,194,194)" stroke-width="1" opacity="1" d="M 276.5 40 L 291 41.5 L 283.5 42 Q 282 39.5 276.5 41 L 276.5 40 Z " /><path fill="rgb(194,194,194)" stroke="rgb(194,194,194)" stroke-width="1" opacity="1" d="M 292.5 42 L 317.5 47 L 344.5 57 L 367.5 69 L 401 93 Q 399.9 95.7 402.5 95 L 417 109.5 L 417 111 Q 419.7 109.9 419 112.5 L 437 134.5 L 448 153.5 L 446 152.5 Q 429.6 120.9 404.5 98 Q 385 79.5 360.5 66 L 329.5 52 L 310.5 46 L 292.5 43 L 292.5 42 Z " /><path fill="rgb(194,194,194)" stroke="rgb(194,194,194)" stroke-width="1" opacity="1" d="M 316.5 42 L 331.5 46 L 366.5 62 L 390.5 78 L 410 94 L 410 96 L 412 96 L 412 98 L 414 98 L 414 100 L 416 100 L 416 102 L 418 102 L 418 104 Q 420.7 102.9 420 105.5 Q 436 121.5 448 141.5 L 466 179.5 Q 467.5 190 472 197.5 L 472 202.5 L 476 215.5 L 476 222.5 L 478 230.5 L 478 244.5 L 479 245.5 L 479 266.5 L 478 267.5 L 478 282.5 L 476 290.5 L 476 297.5 L 474 300.5 L 472 314.5 L 470 317.5 L 468 327.5 L 462 340.5 L 462 343.5 L 448 370.5 L 436 388.5 Q 423.2 405.7 407.5 420 L 404.5 422 Q 384.9 440.9 359.5 454 L 332.5 466 L 317.5 470 L 317.5 469 L 342.5 461 L 373.5 445 Q 399.7 428.7 420 406.5 Q 435 390 447 370.5 L 461 343.5 L 461 340.5 L 467 327.5 L 467 323.5 L 471 314.5 L 473 300.5 L 475 297.5 L 475 288.5 L 477 281.5 L 478 247.5 L 477 246.5 L 477 230.5 L 475 223.5 L 475 215.5 Q 472.2 212.8 473 206.5 L 471 203.5 L 471 197.5 L 469 194.5 L 465 179.5 L 463 177.5 L 463 174.5 L 453 152.5 L 437 126 Q 434.3 127.1 435 124.5 Q 421 104.5 402.5 89 L 399.5 87 Q 383.1 71.9 362.5 61 L 331.5 47 L 316.5 43 L 316.5 42 Z " /><path fill="rgb(194,194,194)" stroke="rgb(194,194,194)" stroke-width="1" opacity="1" d="M 211.5 43 L 216 43.5 L 189.5 50 L 189.5 49 L 211.5 43 Z " /><path fill="rgb(194,194,194)" stroke="rgb(194,194,194)" stroke-width="1" opacity="1" d="M 170.5 50 L 173 50.5 L 139.5 67 L 105 93 L 105 95 L 103 95 L 103 97 L 101 97 L 101 99 L 99 99 L 99 101 L 97 101 L 97 103 Q 94.3 101.9 95 104.5 Q 82 114.9 75 130 Q 72.3 128.9 73 131.5 L 57 157.5 L 57 160.5 L 53 166.5 L 47 181.5 L 47 185.5 L 43.5 192 L 44 190.5 Q 51.7 161.7 66 139.5 Q 83.1 112.1 106.5 91 L 139.5 66 L 170.5 50 Z " /><path fill="rgb(194,194,194)" stroke="rgb(194,194,194)" stroke-width="1" opacity="1" d="M 186.5 50 L 188 50.5 Q 151.8 62.3 125.5 84 L 127.5 81 L 159.5 61 L 186.5 50 Z " /><path fill="rgb(194,194,194)" stroke="rgb(194,194,194)" stroke-width="1" opacity="1" d="M 123.5 84 L 119.5 89 L 112 94 Q 113.1 96.7 110.5 96 L 96 110.5 L 96 112 Q 93.3 110.9 94 113.5 L 77 134.5 L 68 148.5 L 58 168.5 L 50 189.5 L 48 200.5 L 44 211.5 L 43.5 219 L 43 210.5 L 45 207.5 Q 44.2 202.2 47 200.5 L 47 195.5 L 49 192.5 L 49 188.5 L 51 186.5 L 53 177.5 L 67 148.5 Q 86 116 113.5 92 L 123.5 84 Z " /><path fill="rgb(194,194,194)" stroke="rgb(194,194,194)" stroke-width="1" opacity="1" d="M 249.5 107 L 280 107.5 L 249.5 108 L 249.5 107 Z " /><path fill="rgb(194,194,194)" stroke="rgb(194,194,194)" stroke-width="1" opacity="1" d="M 238.5 108 L 248 108.5 L 227.5 111 L 207.5 117 Q 190.1 124.1 178.5 137 L 186.5 128 L 207.5 116 L 219.5 112 L 238.5 108 Z " /><path fill="rgb(194,194,194)" stroke="rgb(194,194,194)" stroke-width="1" opacity="1" d="M 281.5 108 L 291.5 108 L 304 110.5 L 298.5 111 L 291.5 109 L 281.5 109 L 281.5 108 Z " /><path fill="rgb(194,194,194)" stroke="rgb(194,194,194)" stroke-width="1" opacity="1" d="M 305.5 111 L 317 113.5 L 314.5 114 L 305.5 112 L 305.5 111 Z " /><path fill="rgb(194,194,194)" stroke="rgb(194,194,194)" stroke-width="1" opacity="1" d="M 318.5 114 L 334.5 118 L 346 123.5 L 344.5 123 L 328.5 117 L 318.5 115 L 318.5 114 Z " /><path fill="rgb(194,194,194)" stroke="rgb(194,194,194)" stroke-width="1" opacity="1" d="M 347.5 124 Q 360.5 129 369.5 138 L 385 138.5 L 369.5 139 Q 360.5 130 347.5 125 L 347.5 124 Z " /><path fill="rgb(194,194,194)" stroke="rgb(194,194,194)" stroke-width="1" opacity="1" d="M 177.5 138 L 175.5 141 L 165.5 145 L 147 159.5 L 147.5 161 L 154.5 161 L 173.5 153 L 175 156 Q 178 154.8 177 158.5 L 185.5 170 L 205.5 157 L 209 163 L 225.5 158 L 225.5 159 L 209.5 164 L 206 158 L 202.5 159 L 185.5 172 L 174 154 Q 163.1 156.1 154.5 162 L 146.5 162 L 145 160.5 L 148.5 157 L 165.5 144 L 177.5 138 Z " /><path fill="rgb(194,194,194)" stroke="rgb(194,194,194)" stroke-width="1" opacity="1" d="M 386.5 139 Q 396.4 142.1 402 149.5 L 416.5 167 L 422 170 Q 422.7 174.2 419 175.5 L 419 178.5 L 445.5 206 L 452 211.5 L 452 225.5 L 454.5 228 L 457 228.5 L 454.5 229 L 451 225.5 L 451 211 L 449.5 211 L 435 196.5 L 433 193.5 L 429 191 L 426.5 187 Q 424.3 187.8 425 185.5 L 421 183 L 421 181 Q 418.3 182.1 419 179.5 L 418 175.5 L 419 173 Q 421.7 174.1 421 171.5 L 409 160.5 L 401 149 L 399 149 L 399 147 L 397 147 Q 398.1 144.3 395.5 145 Q 392.7 140.8 386.5 140 L 386.5 139 Z " /><path fill="rgb(194,194,194)" stroke="rgb(194,194,194)" stroke-width="1" opacity="1" d="M 265.5 149 L 269.5 149 Q 278.9 157.6 293 161.5 L 290.5 162 Q 278.1 157.9 269.5 150 L 265.5 150 L 251.5 154 L 236.5 156 L 236.5 155 L 251.5 153 L 265.5 149 Z " /><path fill="rgb(194,194,194)" stroke="rgb(194,194,194)" stroke-width="1" opacity="1" d="M 448.5 155 L 457 170.5 L 457 173.5 L 461 180.5 L 461 184.5 L 467 200.5 L 467 205.5 L 471 216.5 Q 469.4 227.1 473 232.5 L 473 244.5 L 469.5 246 L 462 241.5 L 459 234.5 L 459 229.5 L 460 229.5 Q 459.8 240.3 466.5 244 L 472 245 L 472 232.5 L 470 227.5 L 470 218.5 Q 467.3 215.2 468 208.5 L 466 205.5 L 466 200.5 L 460 184.5 L 460 181.5 L 448 156.5 L 448.5 155 Z " /><path fill="rgb(194,194,194)" stroke="rgb(194,194,194)" stroke-width="1" opacity="1" d="M 231.5 156 L 235 156.5 L 227.5 158 L 227.5 157 L 231.5 156 Z " /><path fill="rgb(194,194,194)" stroke="rgb(194,194,194)" stroke-width="1" opacity="1" d="M 269.5 162 L 282 169.5 L 283 171.5 L 278.5 168 L 269.5 163 L 269 172.5 L 264.5 177 L 261.5 178 L 240.5 178 L 240.5 177 L 261.5 177 L 268 172.5 L 268 163.5 L 269.5 162 Z " /><path fill="rgb(194,194,194)" stroke="rgb(194,194,194)" stroke-width="1" opacity="1" d="M 294.5 162 L 299 163.5 L 296.5 164 L 294.5 162 Z " /><path fill="rgb(194,194,194)" stroke="rgb(194,194,194)" stroke-width="1" opacity="1" d="M 300.5 164 L 310.5 167 L 314 169.5 L 312.5 173 Q 300 179 292.5 190 L 290.5 190 L 287 187.5 Q 288.1 184.2 285.5 185 L 275.5 191 L 261.5 195 L 241.5 195 L 241.5 194 L 261.5 194 L 275.5 190 L 286.5 184 L 288 188 L 292.5 189 Q 300.4 177.3 313 172 L 310.5 168 L 302.5 166 L 300.5 164 Z " /><path fill="rgb(194,194,194)" stroke="rgb(194,194,194)" stroke-width="1" opacity="1" d="M 154.5 165 L 171.5 173 L 175 176.5 Q 172.7 183.8 178 182 L 182.5 176 Q 185.1 175.2 184 178.5 L 183 181.5 L 185.5 183 L 198.5 178 L 202.5 178 L 202.5 179 L 198.5 179 L 183 184 L 183 192.5 L 188 202.5 L 191.5 206 Q 197.8 211.2 210 210.5 L 200.5 211 Q 190.5 209 186 201.5 L 182 192.5 L 182 184.5 L 180.5 183 L 175 185.5 Q 174.8 210.2 189.5 220 L 202.5 226 L 211 226 Q 212.1 228.7 209.5 228 L 204.5 230 L 204.5 229 L 209 227.5 Q 189.3 225.7 181 212.5 L 175 199.5 L 174 177.5 L 173 175 L 155.5 167 L 154.5 165 Z M 183 177 L 179 181 L 180 183 L 182 182 L 183 179 L 183 177 Z " /><path fill="rgb(194,194,194)" stroke="rgb(194,194,194)" stroke-width="1" opacity="1" d="M 151.5 166 L 153 166.5 L 114.5 186 L 94 203.5 L 85 216.5 L 85 219.5 L 81 226.5 L 79 234.5 L 78 250.5 L 81 259.5 L 81 263.5 L 80 263.5 L 80 259.5 L 77 250.5 L 77 241.5 Q 79.8 239.7 78 233.5 L 84 216.5 Q 92 202 104.5 192 L 122.5 180 L 151.5 166 Z " /><path fill="rgb(194,194,194)" stroke="rgb(194,194,194)" stroke-width="1" opacity="1" d="M 283.5 173 L 284 175.5 L 280.5 180 L 275.5 182 L 275.5 181 L 281 179 L 283.5 173 Z " /><path fill="rgb(194,194,194)" stroke="rgb(194,194,194)" stroke-width="1" opacity="1" d="M 204.5 177 Q 219.5 175 224 183.5 L 227.5 190 L 240 193.5 L 236.5 194 L 227.5 191 L 225 188.5 Q 223.8 182.8 219.5 180 Q 214.4 176.6 204.5 178 L 204.5 177 Z " /><path fill="rgb(194,194,194)" stroke="rgb(194,194,194)" stroke-width="1" opacity="1" d="M 237 178 L 239 178.5 L 238.5 180 L 248.5 182 L 256.5 182 L 257.5 183 L 269.5 183 L 273.5 182 L 273.5 183 L 257.5 184 L 256.5 183 L 241.5 182 L 237 179.5 L 237 178 Z " /><path fill="rgb(194,194,194)" stroke="rgb(194,194,194)" stroke-width="1" opacity="1" d="M 42.5 193 L 43 198.5 L 39 208.5 L 37 229.5 L 35 235.5 L 35 276.5 L 37 282.5 L 39 303.5 L 43 313.5 L 43 318.5 L 42 318.5 L 40 306.5 L 38 303.5 L 36 282.5 L 34 276.5 L 34 235.5 L 36 229.5 L 38 208.5 L 40 205.5 L 42.5 193 Z " /><path fill="rgb(194,194,194)" stroke="rgb(194,194,194)" stroke-width="1" opacity="1" d="M 218.5 206 Q 223.8 204.3 222 209.5 L 219.5 213 L 214 216.5 L 219 219.5 L 216.5 220 L 213 217.5 L 214 214 L 220 212 L 221 208.5 L 218.5 207 L 211.5 210 L 211.5 209 L 218.5 206 Z " /><path fill="rgb(194,194,194)" stroke="rgb(194,194,194)" stroke-width="1" opacity="1" d="M 228.5 215 L 231.5 215 L 237.5 219 L 242.5 220 L 257 220.5 L 242.5 221 L 237.5 220 L 231.5 216 L 228.5 216 L 220.5 219 L 220.5 218 L 228.5 215 Z " /><path fill="rgb(194,194,194)" stroke="rgb(194,194,194)" stroke-width="1" opacity="1" d="M 258.5 219 L 282.5 219 Q 289.9 221.1 294 226.5 L 293 230 L 284 229.5 L 292 229 L 292 226.5 L 287.5 222 L 282.5 220 L 258.5 220 L 258.5 219 Z " /><path fill="rgb(194,194,194)" stroke="rgb(194,194,194)" stroke-width="1" opacity="1" d="M 42.5 220 L 43 222.5 L 41.5 231 L 41 223.5 L 42.5 220 Z " /><path fill="rgb(194,194,194)" stroke="rgb(194,194,194)" stroke-width="1" opacity="1" d="M 233.5 227 L 244 227.5 L 233 228.5 Q 236.3 229.9 235 235 L 232.5 236 L 212.5 236 L 212.5 235 L 232.5 235 L 234 233.5 Q 234.8 229.3 232 228.5 L 233.5 227 Z " /><path fill="rgb(194,194,194)" stroke="rgb(194,194,194)" stroke-width="1" opacity="1" d="M 245.5 228 L 258 228.5 L 245.5 229 L 245.5 228 Z " /><path fill="rgb(194,194,194)" stroke="rgb(194,194,194)" stroke-width="1" opacity="1" d="M 259.5 229 L 271 229.5 L 259.5 230 L 259.5 229 Z " /><path fill="rgb(194,194,194)" stroke="rgb(194,194,194)" stroke-width="1" opacity="1" d="M 201.5 230 L 203 230.5 Q 201.3 232.8 196.5 232 L 196.5 231 L 201.5 230 Z " /><path fill="rgb(194,194,194)" stroke="rgb(194,194,194)" stroke-width="1" opacity="1" d="M 273.5 230 L 282 230.5 L 273.5 231 L 273.5 230 Z " /><path fill="rgb(194,194,194)" stroke="rgb(194,194,194)" stroke-width="1" opacity="1" d="M 40.5 232 L 41 237.5 L 40 238.5 L 40 273.5 L 41 274.5 L 42 289.5 L 44 293.5 L 45 303.5 L 44 303.5 Q 41.7 300.3 43 293.5 L 41 289.5 L 41 281.5 L 39 275.5 L 39 236.5 L 40.5 232 Z " /><path fill="rgb(194,194,194)" stroke="rgb(194,194,194)" stroke-width="1" opacity="1" d="M 191.5 232 L 195 232.5 L 185.5 234 L 185.5 233 Q 190.3 234.3 191.5 232 Z " /><path fill="rgb(194,194,194)" stroke="rgb(194,194,194)" stroke-width="1" opacity="1" d="M 180.5 234 L 184 234.5 L 174.5 236 L 174.5 235 Q 179.2 236.3 180.5 234 Z " /><path fill="rgb(194,194,194)" stroke="rgb(194,194,194)" stroke-width="1" opacity="1" d="M 169.5 236 L 173 236.5 Q 151.3 239.3 139.5 252 L 139.5 251 Q 141.8 251.8 141 249.5 Q 151.6 239.1 169.5 236 Z " /><path fill="rgb(194,194,194)" stroke="rgb(194,194,194)" stroke-width="1" opacity="1" d="M 209.5 236 L 211 236.5 L 209 237 L 208.5 240 L 208 237.5 L 209.5 236 Z " /><path fill="rgb(194,194,194)" stroke="rgb(194,194,194)" stroke-width="1" opacity="1" d="M 221.5 239 L 256 239.5 L 221.5 240 L 221.5 239 Z " /><path fill="rgb(194,194,194)" stroke="rgb(194,194,194)" stroke-width="1" opacity="1" d="M 213.5 240 L 218 240.5 L 213.5 241 L 213.5 240 Z " /><path fill="rgb(194,194,194)" stroke="rgb(194,194,194)" stroke-width="1" opacity="1" d="M 257.5 240 L 265 242 L 266 246 L 255.5 248 L 246.5 248 L 246.5 247 L 264 246 L 262.5 242 L 257.5 241 L 257.5 240 Z " /><path fill="rgb(194,194,194)" stroke="rgb(194,194,194)" stroke-width="1" opacity="1" d="M 182.5 242 L 189 242 L 189 244.5 L 185.5 249 L 174 258.5 L 167.5 270 L 152.5 274 L 146.5 274 L 146.5 273 L 161.5 271 L 169 267.5 L 170 262.5 L 179.5 252 L 188 244.5 Q 188.6 241.8 182.5 243 L 179.5 244 L 179.5 243 L 182.5 242 Z " /><path fill="rgb(194,194,194)" stroke="rgb(194,194,194)" stroke-width="1" opacity="1" d="M 174.5 244 L 178 244.5 L 172.5 246 L 172.5 245 L 174.5 244 Z " /><path fill="rgb(194,194,194)" stroke="rgb(194,194,194)" stroke-width="1" opacity="1" d="M 168.5 246 L 171 246.5 L 166.5 248 L 166.5 247 L 168.5 246 Z " /><path fill="rgb(194,194,194)" stroke="rgb(194,194,194)" stroke-width="1" opacity="1" d="M 472.5 247 L 474 247.5 L 474 264 L 470 263 Q 468.1 258.9 469 250.5 L 470 248 L 472.5 247 Z M 472 249 L 470 251 L 470 260 L 472 261 L 473 257 L 472 249 Z " /><path fill="rgb(194,194,194)" stroke="rgb(194,194,194)" stroke-width="1" opacity="1" d="M 162.5 248 L 165 248.5 L 121.5 266 L 121.5 265 L 162.5 248 Z " /><path fill="rgb(194,194,194)" stroke="rgb(194,194,194)" stroke-width="1" opacity="1" d="M 221.5 248 L 244 248.5 L 221.5 249 L 220.5 250 L 212.5 250 L 202.5 252 L 202.5 251 L 212.5 249 L 220.5 249 L 221.5 248 Z " /><path fill="rgb(194,194,194)" stroke="rgb(194,194,194)" stroke-width="1" opacity="1" d="M 127.5 252 L 135 252.5 Q 116.9 253.4 108 263.5 L 106 269 L 119.5 266 L 119.5 267 L 104 270 Q 104.6 262.1 111.5 259 L 127.5 252 Z " /><path fill="rgb(194,194,194)" stroke="rgb(194,194,194)" stroke-width="1" opacity="1" d="M 197.5 252 L 201 252.5 L 196 254.5 L 200 264 L 189 270 L 178.5 283 L 171.5 285 L 169 284 L 171 290.5 L 170 290.5 L 168 283 L 174.5 284 L 188 271.5 L 190.5 268 L 198 264 L 198 260.5 Q 194.3 259.8 195 254.5 L 197.5 252 Z " /><path fill="rgb(194,194,194)" stroke="rgb(194,194,194)" stroke-width="1" opacity="1" d="M 81.5 265 L 85 273.5 L 85 278.5 L 89 285.5 L 89 289.5 L 97 303.5 L 104.5 311 L 107.5 312 L 109 310.5 L 109 288.5 L 107 278.5 L 109.5 276 L 120.5 276 L 120.5 277 L 110.5 277 L 108 279.5 L 110 287.5 L 110 310.5 L 107.5 314 L 96 303.5 L 88 289.5 L 88 286.5 L 84 278.5 L 84 274.5 L 81.5 265 Z " /><path fill="rgb(194,194,194)" stroke="rgb(194,194,194)" stroke-width="1" opacity="1" d="M 139.5 274 L 145 274.5 L 138.5 276 L 123.5 276 L 123.5 275 L 138.5 275 L 139.5 274 Z " /><path fill="rgb(194,194,194)" stroke="rgb(194,194,194)" stroke-width="1" opacity="1" d="M 171.5 292 Q 174 293 173 297.5 L 172 297.5 L 171.5 292 Z " /><path fill="rgb(194,194,194)" stroke="rgb(194,194,194)" stroke-width="1" opacity="1" d="M 173.5 299 L 183 323.5 L 183 326.5 L 191 341.5 L 192 348.5 L 187 367.5 Q 180.3 381.8 168.5 391 L 161.5 388 L 157.5 388 L 159 390.5 L 158.5 396 Q 158.8 390.8 156 388.5 Q 157 386 161.5 387 L 168.5 390 Q 188 375.5 191 344.5 L 182 326.5 L 182 323.5 L 178 315.5 L 173.5 299 Z " /><path fill="rgb(194,194,194)" stroke="rgb(194,194,194)" stroke-width="1" opacity="1" d="M 45.5 305 L 54 334.5 L 68 363.5 L 74 372.5 L 71 370.5 L 53 334.5 L 53 331.5 L 47 316.5 L 47 311.5 Q 43.9 309.5 45.5 305 Z " /><path fill="rgb(194,194,194)" stroke="rgb(194,194,194)" stroke-width="1" opacity="1" d="M 44.5 322 L 49 335.5 L 48 335.5 L 44 324.5 L 44.5 322 Z " /><path fill="rgb(194,194,194)" stroke="rgb(194,194,194)" stroke-width="1" opacity="1" d="M 49.5 337 L 53 345.5 L 52 345.5 L 49.5 337 Z " /><path fill="rgb(194,194,194)" stroke="rgb(194,194,194)" stroke-width="1" opacity="1" d="M 53.5 347 Q 64 369.4 77 388 Q 79.7 386.9 79 389.5 L 91 405 Q 93.7 403.9 93 406.5 L 105.5 419 L 107 419 Q 105.9 421.7 108.5 421 Q 126.7 439.3 151 451.5 L 149.5 452 Q 113.9 432.1 88 402.5 Q 66.1 378.3 53.5 347 Z " /><path fill="rgb(194,194,194)" stroke="rgb(194,194,194)" stroke-width="1" opacity="1" d="M 74.5 374 L 92 398 Q 94.7 396.9 94 399.5 L 114.5 420 L 128.5 431 L 133.5 432 Q 138.6 425.6 147.5 423 L 147.5 424 Q 138.6 426.6 133.5 433 L 129.5 433 L 103 411 L 100.5 407 Q 98.3 407.8 99 405.5 Q 91.2 399.5 87 391 Q 84.3 392.1 85 389.5 L 75 376.5 L 74.5 374 Z " /><path fill="rgb(194,194,194)" stroke="rgb(194,194,194)" stroke-width="1" opacity="1" d="M 158.5 400 L 159 407.5 L 155.5 409 L 150.5 403 Q 148.3 402.3 149 404.5 L 155 414.5 L 155 420.5 Q 154.3 423.8 149.5 423 L 149.5 422 Q 153.3 422.8 154 420.5 L 153 412.5 L 148 404.5 L 148 402 L 150.5 402 L 158 408 L 158.5 400 Z " /><path fill="rgb(194,194,194)" stroke="rgb(194,194,194)" stroke-width="1" opacity="1" d="M 152.5 452 L 165.5 459 L 183 465.5 L 180.5 466 L 153.5 454 L 152.5 452 Z " /><path fill="rgb(194,194,194)" stroke="rgb(194,194,194)" stroke-width="1" opacity="1" d="M 184.5 466 L 189 467.5 L 186.5 468 L 184.5 466 Z " /><path fill="rgb(194,194,194)" stroke="rgb(194,194,194)" stroke-width="1" opacity="1" d="M 190.5 468 L 207 472.5 L 204.5 473 L 192.5 470 L 190.5 468 Z " /><path fill="rgb(194,194,194)" stroke="rgb(194,194,194)" stroke-width="1" opacity="1" d="M 313.5 470 L 316 470.5 L 304.5 474 L 300.5 474 L 300.5 473 L 304.5 473 L 313.5 470 Z " /><path fill="rgb(194,194,194)" stroke="rgb(194,194,194)" stroke-width="1" opacity="1" d="M 208.5 473 L 231 476.5 L 225.5 477 L 208.5 474 L 208.5 473 Z " /><path fill="rgb(194,194,194)" stroke="rgb(194,194,194)" stroke-width="1" opacity="1" d="M 295.5 474 L 299 474.5 Q 295.3 476.8 288.5 476 L 288.5 475 Q 294 476.5 295.5 474 Z " /><path fill="rgb(194,194,194)" stroke="rgb(194,194,194)" stroke-width="1" opacity="1" d="M 281.5 476 L 287 476.5 L 280.5 478 L 268.5 478 L 268.5 477 L 280.5 477 L 281.5 476 Z " /><path fill="rgb(194,194,194)" stroke="rgb(194,194,194)" stroke-width="1" opacity="1" d="M 232.5 477 L 245 477.5 L 232.5 478 L 232.5 477 Z " /><path fill="rgb(194,194,194)" stroke="rgb(194,194,194)" stroke-width="1" opacity="1" d="M 247.5 478 L 266 478.5 L 247.5 479 L 247.5 478 Z " /><path fill="rgb(0,0,0)" stroke="rgb(0,0,0)" stroke-width="1" opacity="0.996078431372549" d="M 511.5 2 L 512 509.5 L 511 509.5 L 511.5 2 Z " /><path fill="rgb(121,121,121)" stroke="rgb(121,121,121)" stroke-width="1" opacity="1" d="M 247.5 32 L 265.5 32 L 266.5 33 L 277 33.5 L 236.5 34 L 236.5 33 L 246.5 33 L 247.5 32 Z " /><path fill="rgb(121,121,121)" stroke="rgb(121,121,121)" stroke-width="1" opacity="1" d="M 225.5 34 L 234 34.5 L 220.5 36 L 220.5 35 L 225.5 34 Z " /><path fill="rgb(121,121,121)" stroke="rgb(121,121,121)" stroke-width="1" opacity="1" d="M 279.5 34 L 293 35.5 L 285.5 36 Q 284.3 33.7 279.5 35 L 279.5 34 Z " /><path fill="rgb(121,121,121)" stroke="rgb(121,121,121)" stroke-width="1" opacity="1" d="M 213.5 36 L 219 36.5 L 210.5 38 L 210.5 37 L 213.5 36 Z " /><path fill="rgb(121,121,121)" stroke="rgb(121,121,121)" stroke-width="1" opacity="1" d="M 294.5 36 L 303 37.5 L 298.5 38 L 294.5 37 L 294.5 36 Z " /><path fill="rgb(121,121,121)" stroke="rgb(121,121,121)" stroke-width="1" opacity="1" d="M 204.5 38 L 209 38.5 L 201.5 40 L 201.5 39 L 204.5 38 Z " /><path fill="rgb(121,121,121)" stroke="rgb(121,121,121)" stroke-width="1" opacity="1" d="M 304.5 38 L 308.5 38 L 319 41.5 L 315.5 42 Q 311.5 39 304.5 39 L 304.5 38 Z " /><path fill="rgb(121,121,121)" stroke="rgb(121,121,121)" stroke-width="1" opacity="1" d="M 196.5 40 L 200 40.5 L 194.5 42 L 194.5 41 L 196.5 40 Z " /><path fill="rgb(121,121,121)" stroke="rgb(121,121,121)" stroke-width="1" opacity="1" d="M 236.5 40 L 275.5 40 L 283 41.5 L 273.5 42 L 272.5 41 L 239.5 41 L 238.5 42 L 229.5 42 L 229.5 41 Q 235 42.5 236.5 40 Z " /><path fill="rgb(121,121,121)" stroke="rgb(121,121,121)" stroke-width="1" opacity="1" d="M 189.5 42 L 193 42.5 L 176.5 48 L 176.5 47 L 189.5 42 Z " /><path fill="rgb(121,121,121)" stroke="rgb(121,121,121)" stroke-width="1" opacity="1" d="M 221.5 42 L 228 42.5 L 216.5 44 L 216.5 43 L 221.5 42 Z " /><path fill="rgb(121,121,121)" stroke="rgb(121,121,121)" stroke-width="1" opacity="1" d="M 285.5 42 Q 292.3 41.3 296 43.5 L 290.5 44 L 285.5 43 L 285.5 42 Z " /><path fill="rgb(121,121,121)" stroke="rgb(121,121,121)" stroke-width="1" opacity="1" d="M 320.5 42 L 331 45.5 L 328.5 46 L 320.5 43 L 320.5 42 Z " /><path fill="rgb(121,121,121)" stroke="rgb(121,121,121)" stroke-width="1" opacity="1" d="M 211.5 44 L 215 44.5 L 207.5 46 L 207.5 45 L 211.5 44 Z " /><path fill="rgb(121,121,121)" stroke="rgb(121,121,121)" stroke-width="1" opacity="1" d="M 297.5 44 L 306 45.5 L 301.5 46 L 297.5 45 L 297.5 44 Z " /><path fill="rgb(121,121,121)" stroke="rgb(121,121,121)" stroke-width="1" opacity="1" d="M 202.5 46 L 206 46.5 L 199.5 48 L 199.5 47 L 202.5 46 Z " /><path fill="rgb(121,121,121)" stroke="rgb(121,121,121)" stroke-width="1" opacity="1" d="M 307.5 46 Q 321.5 48 332 53.5 L 329.5 54 L 320.5 50 L 307.5 47 L 307.5 46 Z " /><path fill="rgb(121,121,121)" stroke="rgb(121,121,121)" stroke-width="1" opacity="1" d="M 332.5 46 L 346 51.5 L 344.5 52 L 332.5 47 L 332.5 46 Z " /><path fill="rgb(121,121,121)" stroke="rgb(121,121,121)" stroke-width="1" opacity="1" d="M 173.5 48 L 175 48.5 L 171.5 50 L 171.5 49 L 173.5 48 Z " /><path fill="rgb(121,121,121)" stroke="rgb(121,121,121)" stroke-width="1" opacity="1" d="M 195.5 48 L 198 48.5 L 181.5 54 L 181.5 53 L 195.5 48 Z " /><path fill="rgb(121,121,121)" stroke="rgb(121,121,121)" stroke-width="1" opacity="1" d="M 168.5 50 L 170 50.5 L 158.5 56 L 159.5 54 L 168.5 50 Z " /><path fill="rgb(121,121,121)" stroke="rgb(121,121,121)" stroke-width="1" opacity="1" d="M 347.5 52 Q 358.3 55.3 366 61.5 L 364.5 62 L 347.5 53 L 347.5 52 Z " /><path fill="rgb(121,121,121)" stroke="rgb(121,121,121)" stroke-width="1" opacity="1" d="M 177.5 54 L 180 54.5 L 171.5 58 L 171.5 57 L 177.5 54 Z " /><path fill="rgb(121,121,121)" stroke="rgb(121,121,121)" stroke-width="1" opacity="1" d="M 333.5 54 L 337 55.5 L 335.5 56 L 333.5 54 Z " /><path fill="rgb(121,121,121)" stroke="rgb(121,121,121)" stroke-width="1" opacity="1" d="M 155.5 56 L 157 56.5 Q 117.8 76.3 90 107.5 L 74.5 127 L 76 124.5 Q 89.8 103.8 108.5 88 Q 129.1 69.1 155.5 56 Z " /><path fill="rgb(121,121,121)" stroke="rgb(121,121,121)" stroke-width="1" opacity="1" d="M 338.5 56 Q 383.6 74.4 414 107.5 L 434 132.5 L 431 130.5 L 410 104 L 379.5 79 Q 361.3 65.7 338.5 57 L 338.5 56 Z " /><path fill="rgb(121,121,121)" stroke="rgb(121,121,121)" stroke-width="1" opacity="1" d="M 168.5 58 L 170 58.5 L 140.5 74 L 118 90 Q 119.1 92.7 116.5 92 L 100 107.5 L 92 118 Q 89.3 116.9 90 119.5 L 76.5 137 L 77 135.5 L 94 112 Q 96.7 113.1 96 110.5 L 110.5 96 L 112 96 Q 110.9 93.3 113.5 94 Q 137 72 168.5 58 Z " /><path fill="rgb(121,121,121)" stroke="rgb(121,121,121)" stroke-width="1" opacity="1" d="M 367.5 62 L 379 69.5 L 377.5 69 L 368.5 64 L 367.5 62 Z " /><path fill="rgb(121,121,121)" stroke="rgb(121,121,121)" stroke-width="1" opacity="1" d="M 380.5 70 L 398 82 Q 396.9 84.7 399.5 84 L 424 107.5 L 428 114 Q 430.7 112.9 430 115.5 L 438 125.5 L 435 123.5 L 420 104 L 418 104 L 418 102 L 416 102 L 416 100 L 414 100 L 414 98 L 412 98 L 412 96 L 410 96 Q 411.1 93.3 408.5 94 Q 397.4 81.6 382.5 73 L 380.5 70 Z " /><path fill="rgb(121,121,121)" stroke="rgb(121,121,121)" stroke-width="1" opacity="1" d="M 247.5 106 L 282.5 106 L 290 107.5 L 280.5 108 L 279.5 107 L 249.5 107 L 248.5 108 L 240.5 108 L 240.5 107 Q 246 108.5 247.5 106 Z " /><path fill="rgb(121,121,121)" stroke="rgb(121,121,121)" stroke-width="1" opacity="1" d="M 232.5 108 L 238 108.5 L 228.5 110 L 228.5 109 L 232.5 108 Z " /><path fill="rgb(121,121,121)" stroke="rgb(121,121,121)" stroke-width="1" opacity="1" d="M 292.5 108 Q 299.3 107.3 303 109.5 L 298.5 110 Q 297.3 107.8 292.5 109 L 292.5 108 Z " /><path fill="rgb(121,121,121)" stroke="rgb(121,121,121)" stroke-width="1" opacity="1" d="M 222.5 110 L 227 110.5 L 220.5 112 L 220.5 111 L 222.5 110 Z " /><path fill="rgb(121,121,121)" stroke="rgb(121,121,121)" stroke-width="1" opacity="1" d="M 304.5 110 Q 310.3 109.3 313 111.5 L 309.5 112 L 304.5 111 L 304.5 110 Z " /><path fill="rgb(121,121,121)" stroke="rgb(121,121,121)" stroke-width="1" opacity="1" d="M 215.5 112 L 219 112.5 L 208.5 116 L 208.5 115 L 215.5 112 Z " /><path fill="rgb(121,121,121)" stroke="rgb(121,121,121)" stroke-width="1" opacity="1" d="M 314.5 112 Q 319.3 111.3 321 113.5 L 317.5 114 L 314.5 113 L 314.5 112 Z " /><path fill="rgb(121,121,121)" stroke="rgb(121,121,121)" stroke-width="1" opacity="1" d="M 322.5 114 L 328 115.5 L 325.5 116 L 322.5 115 L 322.5 114 Z " /><path fill="rgb(121,121,121)" stroke="rgb(121,121,121)" stroke-width="1" opacity="1" d="M 205.5 116 L 207 116.5 Q 189.1 123.1 178 136.5 L 175.5 140 Q 156.9 146.9 145 160.5 L 145.5 162 Q 143.3 162.8 144 160.5 L 145 158 L 163.5 144 L 173.5 140 L 180 133.5 L 180 132 L 182 132 Q 180.9 129.3 183.5 130 Q 192.5 121 205.5 116 Z " /><path fill="rgb(121,121,121)" stroke="rgb(121,121,121)" stroke-width="1" opacity="1" d="M 329.5 116 L 334 117.5 L 331.5 118 L 329.5 116 Z " /><path fill="rgb(121,121,121)" stroke="rgb(121,121,121)" stroke-width="1" opacity="1" d="M 335.5 118 L 339 119.5 L 337.5 120 L 335.5 118 Z " /><path fill="rgb(121,121,121)" stroke="rgb(121,121,121)" stroke-width="1" opacity="1" d="M 340.5 120 L 344 121.5 L 342.5 122 L 340.5 120 Z " /><path fill="rgb(121,121,121)" stroke="rgb(121,121,121)" stroke-width="1" opacity="1" d="M 345.5 122 L 361.5 130 L 368.5 136 L 375.5 137 L 377.5 136 L 388.5 138 L 390 139.5 L 388.5 140 L 384.5 138 L 369.5 138 Q 360.4 128.6 346.5 124 L 345.5 122 Z " /><path fill="rgb(121,121,121)" stroke="rgb(121,121,121)" stroke-width="1" opacity="1" d="M 438.5 127 L 448 140.5 L 446 139.5 L 438.5 127 Z " /><path fill="rgb(121,121,121)" stroke="rgb(121,121,121)" stroke-width="1" opacity="1" d="M 73.5 128 L 72 130.5 L 66.5 139 L 67 137.5 L 73.5 128 Z " /><path fill="rgb(121,121,121)" stroke="rgb(121,121,121)" stroke-width="1" opacity="1" d="M 434.5 134 L 438 138.5 L 436 137.5 L 434.5 134 Z " /><path fill="rgb(121,121,121)" stroke="rgb(121,121,121)" stroke-width="1" opacity="1" d="M 75.5 138 L 75 139.5 L 62.5 162 L 62 160.5 L 68 148.5 L 75.5 138 Z " /><path fill="rgb(121,121,121)" stroke="rgb(121,121,121)" stroke-width="1" opacity="1" d="M 65.5 140 L 65 141.5 L 62.5 146 L 62 144.5 L 65.5 140 Z " /><path fill="rgb(121,121,121)" stroke="rgb(121,121,121)" stroke-width="1" opacity="1" d="M 391.5 140 Q 399.7 143.3 404 150.5 L 414 164 L 416 164 Q 414.9 166.7 417.5 166 L 423 170.5 Q 423.5 175 420 175.5 L 420 178.5 L 453 211.5 L 453 217.5 L 452 217.5 L 452 211.5 L 446.5 206 L 438 198.5 L 419 178.5 L 419 175.5 Q 422.7 174.2 422 170 L 411 161.5 L 396.5 144 Q 391.9 142.8 391.5 140 Z " /><path fill="rgb(121,121,121)" stroke="rgb(121,121,121)" stroke-width="1" opacity="1" d="M 438.5 140 L 448 155.5 L 446 154.5 L 438.5 140 Z " /><path fill="rgb(121,121,121)" stroke="rgb(121,121,121)" stroke-width="1" opacity="1" d="M 448.5 142 L 456 155.5 L 454 154.5 L 448 143.5 L 448.5 142 Z " /><path fill="rgb(121,121,121)" stroke="rgb(121,121,121)" stroke-width="1" opacity="1" d="M 61.5 147 L 61 148.5 L 56.5 157 L 57 155.5 L 61.5 147 Z " /><path fill="rgb(121,121,121)" stroke="rgb(121,121,121)" stroke-width="1" opacity="1" d="M 265.5 150 L 269.5 150 L 285.5 160 L 310.5 168 L 313 170.5 Q 313.8 172.8 311.5 172 Q 300.2 178.7 292.5 189 L 290.5 189 L 288 188 L 286.5 184 L 282.5 186 L 283.5 184 L 288 183 L 290.5 188 Q 295.5 188.5 296 184.5 L 301.5 178 L 312 170.5 L 282.5 160 L 269.5 151 L 266.5 151 L 261.5 152 L 261.5 151 L 265.5 150 Z " /><path fill="rgb(121,121,121)" stroke="rgb(121,121,121)" stroke-width="1" opacity="1" d="M 256.5 152 L 260 152.5 L 252.5 154 L 252.5 153 L 256.5 152 Z " /><path fill="rgb(121,121,121)" stroke="rgb(121,121,121)" stroke-width="1" opacity="1" d="M 171.5 154 Q 174.8 152.9 174 155.5 L 185.5 172 L 202.5 159 L 206 158 L 210 164.5 L 208.5 164 Q 206.3 164.8 207 162.5 L 204.5 159 Q 196.6 167.3 186 172 L 184.5 177 L 182.5 176 L 178 182 Q 172.7 183.8 175 176.5 L 171.5 173 L 154.5 165 L 117.5 183 Q 102.6 191.6 92 204.5 L 84.5 216 L 85 214.5 L 90 205.5 L 105.5 190 L 127.5 176 L 152.5 164 L 155.5 164 L 168.5 170 L 176 176.5 L 176.5 181 L 182.5 174 Q 185.1 174.8 184 171.5 L 172.5 155 L 169.5 156 L 169.5 155 L 171.5 154 Z " /><path fill="rgb(121,121,121)" stroke="rgb(121,121,121)" stroke-width="1" opacity="1" d="M 246.5 154 L 251 154.5 L 241.5 156 L 241.5 155 L 246.5 154 Z " /><path fill="rgb(121,121,121)" stroke="rgb(121,121,121)" stroke-width="1" opacity="1" d="M 166.5 156 L 168 156.5 Q 163.3 160.8 155.5 162 L 155.5 161 L 166.5 156 Z " /><path fill="rgb(121,121,121)" stroke="rgb(121,121,121)" stroke-width="1" opacity="1" d="M 235.5 156 L 240 156.5 Q 237.3 158.8 231.5 158 L 231.5 157 L 235.5 156 Z " /><path fill="rgb(121,121,121)" stroke="rgb(121,121,121)" stroke-width="1" opacity="1" d="M 448.5 157 L 450 159.5 L 448 158.5 L 448.5 157 Z " /><path fill="rgb(121,121,121)" stroke="rgb(121,121,121)" stroke-width="1" opacity="1" d="M 456.5 157 L 462 168.5 L 461 168.5 L 456.5 157 Z " /><path fill="rgb(121,121,121)" stroke="rgb(121,121,121)" stroke-width="1" opacity="1" d="M 55.5 158 L 56 159.5 L 48.5 176 L 48 173.5 L 55.5 158 Z " /><path fill="rgb(121,121,121)" stroke="rgb(121,121,121)" stroke-width="1" opacity="1" d="M 226.5 158 L 230 158.5 L 217.5 162 L 217.5 161 L 226.5 158 Z " /><path fill="rgb(121,121,121)" stroke="rgb(121,121,121)" stroke-width="1" opacity="1" d="M 450.5 161 L 458 177.5 L 457 177.5 L 450 162.5 L 450.5 161 Z " /><path fill="rgb(121,121,121)" stroke="rgb(121,121,121)" stroke-width="1" opacity="1" d="M 147.5 162 L 154 162.5 L 147.5 163 L 147.5 162 Z " /><path fill="rgb(121,121,121)" stroke="rgb(121,121,121)" stroke-width="1" opacity="1" d="M 213.5 162 L 216 162.5 L 211.5 164 L 211.5 163 L 213.5 162 Z " /><path fill="rgb(121,121,121)" stroke="rgb(121,121,121)" stroke-width="1" opacity="1" d="M 267 162 L 269 162.5 L 268 163.5 L 268 172.5 L 264.5 176 L 263 175.5 L 266 173.5 L 267 171.5 L 267 162 Z " /><path fill="rgb(121,121,121)" stroke="rgb(121,121,121)" stroke-width="1" opacity="1" d="M 270.5 162 L 280.5 167 L 284 170.5 L 283.5 173 L 280.5 168 L 271.5 164 L 270.5 162 Z " /><path fill="rgb(121,121,121)" stroke="rgb(121,121,121)" stroke-width="1" opacity="1" d="M 61.5 163 L 61 164.5 L 56.5 175 L 56 173.5 L 61.5 163 Z " /><path fill="rgb(121,121,121)" stroke="rgb(121,121,121)" stroke-width="1" opacity="1" d="M 462.5 170 L 464 173.5 L 463 173.5 L 462.5 170 Z " /><path fill="rgb(121,121,121)" stroke="rgb(121,121,121)" stroke-width="1" opacity="1" d="M 464.5 175 L 466 178.5 L 465 178.5 L 464.5 175 Z " /><path fill="rgb(121,121,121)" stroke="rgb(121,121,121)" stroke-width="1" opacity="1" d="M 55.5 176 L 56 177.5 L 52.5 186 L 52 183.5 L 55.5 176 Z " /><path fill="rgb(121,121,121)" stroke="rgb(121,121,121)" stroke-width="1" opacity="1" d="M 202.5 176 Q 218.6 173.4 224 181.5 L 229 189.5 L 227.5 190 Q 224.9 183.1 219.5 179 Q 214.4 175.6 204.5 177 L 199.5 178 L 199.5 177 L 202.5 176 Z " /><path fill="rgb(121,121,121)" stroke="rgb(121,121,121)" stroke-width="1" opacity="1" d="M 239.5 176 L 262 176.5 L 240.5 177 L 237 178 L 238.5 181 L 241 181.5 L 237.5 182 L 236 178.5 L 239.5 176 Z " /><path fill="rgb(121,121,121)" stroke="rgb(121,121,121)" stroke-width="1" opacity="1" d="M 283.5 176 L 284 177.5 L 278.5 182 L 279.5 180 L 283 177.5 L 283.5 176 Z " /><path fill="rgb(121,121,121)" stroke="rgb(121,121,121)" stroke-width="1" opacity="1" d="M 47.5 177 L 48 178.5 L 46.5 181 L 46 178.5 L 47.5 177 Z " /><path fill="rgb(121,121,121)" stroke="rgb(121,121,121)" stroke-width="1" opacity="1" d="M 195.5 178 L 198 178.5 L 184.5 183 L 183 179.5 L 184 179.5 Q 182.9 182.8 185.5 182 L 195.5 178 Z " /><path fill="rgb(121,121,121)" stroke="rgb(121,121,121)" stroke-width="1" opacity="1" d="M 458.5 179 L 460 183.5 L 459 183.5 L 458.5 179 Z " /><path fill="rgb(121,121,121)" stroke="rgb(121,121,121)" stroke-width="1" opacity="1" d="M 466.5 180 L 470 190.5 L 469 190.5 L 466.5 180 Z " /><path fill="rgb(121,121,121)" stroke="rgb(121,121,121)" stroke-width="1" opacity="1" d="M 45.5 182 L 46 184.5 L 44.5 187 L 44 184.5 L 45.5 182 Z " /><path fill="rgb(121,121,121)" stroke="rgb(121,121,121)" stroke-width="1" opacity="1" d="M 242.5 182 L 257 183.5 L 247.5 184 L 242.5 183 L 242.5 182 Z " /><path fill="rgb(121,121,121)" stroke="rgb(121,121,121)" stroke-width="1" opacity="1" d="M 274.5 182 L 277 182.5 Q 275.3 184.8 270.5 184 L 270.5 183 L 274.5 182 Z " /><path fill="rgb(121,121,121)" stroke="rgb(121,121,121)" stroke-width="1" opacity="1" d="M 180.5 183 Q 183 184 182 188.5 L 181 188.5 L 180.5 183 Z " /><path fill="rgb(121,121,121)" stroke="rgb(121,121,121)" stroke-width="1" opacity="1" d="M 176.5 184 L 179 184.5 L 176 186.5 L 175.5 193 L 175 185.5 L 176.5 184 Z " /><path fill="rgb(121,121,121)" stroke="rgb(121,121,121)" stroke-width="1" opacity="1" d="M 460.5 185 L 462 188.5 L 460 187.5 L 460.5 185 Z " /><path fill="rgb(121,121,121)" stroke="rgb(121,121,121)" stroke-width="1" opacity="1" d="M 279.5 186 L 281 186.5 L 278.5 188 L 279.5 186 Z " /><path fill="rgb(121,121,121)" stroke="rgb(121,121,121)" stroke-width="1" opacity="1" d="M 51.5 187 L 52 188.5 L 50.5 192 L 50 189.5 L 51.5 187 Z " /><path fill="rgb(121,121,121)" stroke="rgb(121,121,121)" stroke-width="1" opacity="1" d="M 43.5 188 L 44 190.5 L 42.5 193 L 42 190.5 L 43.5 188 Z " /><path fill="rgb(121,121,121)" stroke="rgb(121,121,121)" stroke-width="1" opacity="1" d="M 275.5 188 L 277 188.5 L 267.5 192 L 267.5 191 L 275.5 188 Z " /><path fill="rgb(121,121,121)" stroke="rgb(121,121,121)" stroke-width="1" opacity="1" d="M 230.5 190 L 242.5 193 L 260.5 193 L 265.5 192 L 265.5 193 L 261.5 194 L 240.5 194 L 232.5 192 L 230.5 190 Z " /><path fill="rgb(121,121,121)" stroke="rgb(121,121,121)" stroke-width="1" opacity="1" d="M 462.5 191 L 466 203.5 L 465 203.5 L 462.5 191 Z " /><path fill="rgb(121,121,121)" stroke="rgb(121,121,121)" stroke-width="1" opacity="1" d="M 470.5 192 L 472 196.5 L 471 196.5 L 470.5 192 Z " /><path fill="rgb(121,121,121)" stroke="rgb(121,121,121)" stroke-width="1" opacity="1" d="M 49.5 193 L 50 196.5 L 48.5 199 L 48 196.5 L 49.5 193 Z " /><path fill="rgb(121,121,121)" stroke="rgb(121,121,121)" stroke-width="1" opacity="1" d="M 182.5 193 L 184 196.5 L 183 196.5 L 182.5 193 Z " /><path fill="rgb(121,121,121)" stroke="rgb(121,121,121)" stroke-width="1" opacity="1" d="M 41.5 194 L 42 197.5 L 40.5 201 L 40 196.5 L 41.5 194 Z " /><path fill="rgb(121,121,121)" stroke="rgb(121,121,121)" stroke-width="1" opacity="1" d="M 176.5 195 L 178 201.5 L 177 201.5 L 176.5 195 Z " /><path fill="rgb(121,121,121)" stroke="rgb(121,121,121)" stroke-width="1" opacity="1" d="M 184.5 198 Q 186.7 204.8 192.5 208 Q 198.3 212.2 209.5 211 L 219.5 207 L 221 209.5 L 220 212 L 214 214 L 213 217.5 L 216 219.5 L 214.5 220 L 212 219 Q 211 214.3 214.5 213 L 220 209.5 Q 220.8 207.3 218.5 208 Q 212.8 213.8 199.5 212 L 188 206 L 184 199.5 L 184.5 198 Z " /><path fill="rgb(121,121,121)" stroke="rgb(121,121,121)" stroke-width="1" opacity="1" d="M 472.5 199 Q 474.8 200.8 474 205.5 L 473 205.5 L 472.5 199 Z " /><path fill="rgb(121,121,121)" stroke="rgb(121,121,121)" stroke-width="1" opacity="1" d="M 47.5 201 L 48 203.5 L 46.5 206 L 46 203.5 L 47.5 201 Z " /><path fill="rgb(121,121,121)" stroke="rgb(121,121,121)" stroke-width="1" opacity="1" d="M 39.5 202 L 40 205.5 L 38.5 208 L 38 205.5 L 39.5 202 Z " /><path fill="rgb(121,121,121)" stroke="rgb(121,121,121)" stroke-width="1" opacity="1" d="M 178.5 203 L 180 206.5 L 179 206.5 L 178.5 203 Z " /><path fill="rgb(121,121,121)" stroke="rgb(121,121,121)" stroke-width="1" opacity="1" d="M 466.5 206 L 468 211.5 L 467 211.5 L 466.5 206 Z " /><path fill="rgb(121,121,121)" stroke="rgb(121,121,121)" stroke-width="1" opacity="1" d="M 474.5 207 L 476 214.5 L 475 214.5 L 474.5 207 Z " /><path fill="rgb(121,121,121)" stroke="rgb(121,121,121)" stroke-width="1" opacity="1" d="M 45.5 208 L 46 212.5 L 44.5 217 L 44 211.5 L 45.5 208 Z " /><path fill="rgb(121,121,121)" stroke="rgb(121,121,121)" stroke-width="1" opacity="1" d="M 180.5 208 L 188.5 218 Q 195.9 225.1 210 225.5 L 202.5 226 Q 189 222.5 182 212.5 L 180.5 208 Z " /><path fill="rgb(121,121,121)" stroke="rgb(121,121,121)" stroke-width="1" opacity="1" d="M 37.5 211 L 38 214.5 L 36.5 221 L 36 214.5 L 37.5 211 Z " /><path fill="rgb(121,121,121)" stroke="rgb(121,121,121)" stroke-width="1" opacity="1" d="M 468.5 214 L 470 223.5 L 469 223.5 L 468.5 214 Z " /><path fill="rgb(121,121,121)" stroke="rgb(121,121,121)" stroke-width="1" opacity="1" d="M 228.5 216 L 231.5 216 L 237.5 220 L 242.5 221 L 256.5 221 L 257.5 220 L 271.5 220 L 271.5 221 L 241.5 222 L 229.5 217 L 223.5 220 L 219.5 220 L 219.5 219 L 222.5 219 L 228.5 216 Z " /><path fill="rgb(121,121,121)" stroke="rgb(121,121,121)" stroke-width="1" opacity="1" d="M 83.5 217 L 84 218.5 L 80.5 226 L 80 224.5 L 83.5 217 Z " /><path fill="rgb(121,121,121)" stroke="rgb(121,121,121)" stroke-width="1" opacity="1" d="M 476.5 218 Q 478.9 222.1 478 229.5 L 477 229.5 L 476.5 218 Z " /><path fill="rgb(121,121,121)" stroke="rgb(121,121,121)" stroke-width="1" opacity="1" d="M 43.5 219 L 44 223.5 L 42.5 227 L 42 223.5 L 43.5 219 Z " /><path fill="rgb(121,121,121)" stroke="rgb(121,121,121)" stroke-width="1" opacity="1" d="M 275.5 220 Q 282.3 218.7 285 221.5 L 282.5 222 Q 281 219.5 275.5 221 L 275.5 220 Z " /><path fill="rgb(121,121,121)" stroke="rgb(121,121,121)" stroke-width="1" opacity="1" d="M 35.5 222 L 36 229.5 L 34.5 235 L 34 228.5 L 35.5 222 Z " /><path fill="rgb(121,121,121)" stroke="rgb(121,121,121)" stroke-width="1" opacity="1" d="M 286.5 222 L 292 226.5 L 291.5 229 L 284.5 229 L 283.5 230 L 271.5 230 L 270.5 229 L 258 228.5 L 291 228 L 288.5 224 L 286.5 222 Z " /><path fill="rgb(121,121,121)" stroke="rgb(121,121,121)" stroke-width="1" opacity="1" d="M 452.5 224 L 454.5 227 L 456 227.5 L 454.5 228 Q 450.9 226.9 452.5 224 Z " /><path fill="rgb(121,121,121)" stroke="rgb(121,121,121)" stroke-width="1" opacity="1" d="M 211 226 Q 215.1 224.7 214 228 L 201.5 232 L 201.5 231 L 211 228 L 211 226 Z " /><path fill="rgb(121,121,121)" stroke="rgb(121,121,121)" stroke-width="1" opacity="1" d="M 232 226 L 246.5 226 L 255 227.5 L 244.5 228 L 243.5 227 L 233.5 227 L 232 227.5 L 232 226 Z " /><path fill="rgb(121,121,121)" stroke="rgb(121,121,121)" stroke-width="1" opacity="1" d="M 79.5 227 L 80 229.5 L 78.5 233 L 78 229.5 L 79.5 227 Z " /><path fill="rgb(121,121,121)" stroke="rgb(121,121,121)" stroke-width="1" opacity="1" d="M 457.5 228 Q 463.2 226.2 461 232.5 L 462 236.5 L 461 236.5 L 460 229 Q 456.7 229.8 457.5 228 Z " /><path fill="rgb(121,121,121)" stroke="rgb(121,121,121)" stroke-width="1" opacity="1" d="M 470.5 228 Q 472.8 231.8 472 238.5 L 471 238.5 L 470.5 228 Z " /><path fill="rgb(121,121,121)" stroke="rgb(121,121,121)" stroke-width="1" opacity="1" d="M 232.5 229 L 234 231.5 L 232 230.5 L 232.5 229 Z " /><path fill="rgb(121,121,121)" stroke="rgb(121,121,121)" stroke-width="1" opacity="1" d="M 41.5 231 L 42 240.5 L 41 241.5 L 41 270.5 L 42 271.5 L 42 280.5 L 41 280.5 Q 42.5 275 40 273.5 L 40 238.5 L 41.5 231 Z " /><path fill="rgb(121,121,121)" stroke="rgb(121,121,121)" stroke-width="1" opacity="1" d="M 478.5 231 L 479 240.5 L 480 241.5 L 480 270.5 L 479 271.5 L 478.5 281 L 478 267.5 L 479 266.5 L 479 245.5 L 478 244.5 L 478.5 231 Z " /><path fill="rgb(121,121,121)" stroke="rgb(121,121,121)" stroke-width="1" opacity="1" d="M 195.5 232 L 200 232.5 Q 197.3 234.8 191.5 234 L 191.5 233 L 195.5 232 Z " /><path fill="rgb(121,121,121)" stroke="rgb(121,121,121)" stroke-width="1" opacity="1" d="M 233.5 233 L 232.5 235 L 212.5 235 L 208 237.5 Q 206.7 242.1 212.5 240 L 217.5 241 L 218.5 240 L 240.5 240 L 240.5 241 L 209.5 242 L 206 239.5 L 209.5 235 L 211.5 234 L 232.5 234 L 233.5 233 Z " /><path fill="rgb(121,121,121)" stroke="rgb(121,121,121)" stroke-width="1" opacity="1" d="M 77.5 234 L 78 240.5 L 77 241.5 L 77 250.5 L 78 254.5 L 77 254.5 Q 74.5 249 76 239.5 L 77.5 234 Z " /><path fill="rgb(121,121,121)" stroke="rgb(121,121,121)" stroke-width="1" opacity="1" d="M 184.5 234 L 190 234.5 L 180.5 236 L 180.5 235 L 184.5 234 Z " /><path fill="rgb(121,121,121)" stroke="rgb(121,121,121)" stroke-width="1" opacity="1" d="M 173.5 236 L 179 236.5 L 169.5 238 L 169.5 237 L 173.5 236 Z " /><path fill="rgb(121,121,121)" stroke="rgb(121,121,121)" stroke-width="1" opacity="1" d="M 164.5 238 L 168 238.5 Q 149 242 138.5 254 L 127.5 254 L 127.5 253 L 140.5 252 L 149.5 244 L 164.5 238 Z " /><path fill="rgb(121,121,121)" stroke="rgb(121,121,121)" stroke-width="1" opacity="1" d="M 462.5 238 L 466.5 243 L 468 243.5 L 466.5 244 L 462 239.5 L 462.5 238 Z " /><path fill="rgb(121,121,121)" stroke="rgb(121,121,121)" stroke-width="1" opacity="1" d="M 187.5 240 L 190 241.5 L 190 244.5 L 183.5 252 L 176 257 L 172.5 262 L 174 259.5 L 178.5 254 L 187 247.5 L 189 242 L 183 241.5 L 187.5 240 Z " /><path fill="rgb(121,121,121)" stroke="rgb(121,121,121)" stroke-width="1" opacity="1" d="M 248.5 240 Q 256.2 238.8 260 241.5 L 255.5 242 Q 254 239.5 248.5 241 L 248.5 240 Z " /><path fill="rgb(121,121,121)" stroke="rgb(121,121,121)" stroke-width="1" opacity="1" d="M 33.5 242 L 34 269.5 L 33 269.5 L 33.5 242 Z " /><path fill="rgb(121,121,121)" stroke="rgb(121,121,121)" stroke-width="1" opacity="1" d="M 178.5 242 L 182 242.5 L 175.5 244 L 175.5 243 L 178.5 242 Z " /><path fill="rgb(121,121,121)" stroke="rgb(121,121,121)" stroke-width="1" opacity="1" d="M 261.5 242 L 264 243.5 L 264 246 L 258.5 246 L 258.5 245 Q 262.9 246.5 262 243.5 L 261.5 242 Z " /><path fill="rgb(121,121,121)" stroke="rgb(121,121,121)" stroke-width="1" opacity="1" d="M 471.5 243 L 472 245 L 469 244.5 L 471.5 243 Z " /><path fill="rgb(121,121,121)" stroke="rgb(121,121,121)" stroke-width="1" opacity="1" d="M 171.5 244 L 174 244.5 L 163.5 248 L 163.5 247 L 171.5 244 Z " /><path fill="rgb(121,121,121)" stroke="rgb(121,121,121)" stroke-width="1" opacity="1" d="M 240.5 246 L 256 246.5 L 246.5 247 L 245.5 248 L 225.5 248 L 225.5 247 L 239.5 247 L 240.5 246 Z " /><path fill="rgb(121,121,121)" stroke="rgb(121,121,121)" stroke-width="1" opacity="1" d="M 160.5 248 L 162 248.5 L 158.5 250 L 158.5 249 L 160.5 248 Z " /><path fill="rgb(121,121,121)" stroke="rgb(121,121,121)" stroke-width="1" opacity="1" d="M 211.5 248 L 221 248.5 L 206.5 250 L 206.5 249 L 211.5 248 Z " /><path fill="rgb(121,121,121)" stroke="rgb(121,121,121)" stroke-width="1" opacity="1" d="M 471.5 249 L 473 256.5 L 471.5 261 L 470 259.5 L 470 250.5 L 471.5 249 Z " /><path fill="rgb(121,121,121)" stroke="rgb(121,121,121)" stroke-width="1" opacity="1" d="M 154.5 250 L 157 250.5 L 153.5 252 L 154.5 250 Z " /><path fill="rgb(121,121,121)" stroke="rgb(121,121,121)" stroke-width="1" opacity="1" d="M 200.5 250 L 205 250.5 L 198.5 252 L 198.5 251 L 200.5 250 Z " /><path fill="rgb(121,121,121)" stroke="rgb(121,121,121)" stroke-width="1" opacity="1" d="M 150.5 252 L 152 252.5 L 139.5 258 L 140.5 256 L 150.5 252 Z " /><path fill="rgb(121,121,121)" stroke="rgb(121,121,121)" stroke-width="1" opacity="1" d="M 195.5 252 L 197 252.5 Q 194.3 253.3 195 257.5 Q 198.7 258.2 198 263.5 L 197 263.5 L 194 257.5 L 194 253.5 L 195.5 252 Z " /><path fill="rgb(121,121,121)" stroke="rgb(121,121,121)" stroke-width="1" opacity="1" d="M 123.5 254 L 126 254.5 L 121.5 256 L 121.5 255 L 123.5 254 Z " /><path fill="rgb(121,121,121)" stroke="rgb(121,121,121)" stroke-width="1" opacity="1" d="M 78.5 256 L 80 261.5 L 79 261.5 L 78.5 256 Z " /><path fill="rgb(121,121,121)" stroke="rgb(121,121,121)" stroke-width="1" opacity="1" d="M 118.5 256 L 120 256.5 Q 111.8 259.8 107 266.5 Q 106.3 268.8 108.5 268 L 108.5 269 Q 104.8 270.3 106 266.5 L 110.5 261 L 118.5 256 Z " /><path fill="rgb(121,121,121)" stroke="rgb(121,121,121)" stroke-width="1" opacity="1" d="M 136.5 258 L 138 258.5 L 134.5 260 L 134.5 259 L 136.5 258 Z " /><path fill="rgb(121,121,121)" stroke="rgb(121,121,121)" stroke-width="1" opacity="1" d="M 131.5 260 L 133 260.5 L 129.5 262 L 129.5 261 L 131.5 260 Z " /><path fill="rgb(121,121,121)" stroke="rgb(121,121,121)" stroke-width="1" opacity="1" d="M 126.5 262 L 128 262.5 Q 121 267 110.5 268 L 110.5 267 L 126.5 262 Z " /><path fill="rgb(121,121,121)" stroke="rgb(121,121,121)" stroke-width="1" opacity="1" d="M 171.5 263 L 172 264.5 L 170 270 L 162.5 272 L 162.5 271 Q 168.1 271.1 170 267.5 Q 169.3 263.8 171.5 263 Z " /><path fill="rgb(121,121,121)" stroke="rgb(121,121,121)" stroke-width="1" opacity="1" d="M 80.5 264 L 82 269.5 L 81 269.5 L 80.5 264 Z " /><path fill="rgb(121,121,121)" stroke="rgb(121,121,121)" stroke-width="1" opacity="1" d="M 194.5 264 L 196 264.5 L 188 270.5 L 176.5 283 L 171.5 284 L 168.5 283 L 167 283.5 Q 166.1 280.1 171.5 282 L 173.5 283 L 176.5 282 L 184 274.5 L 191.5 266 L 194.5 264 Z " /><path fill="rgb(121,121,121)" stroke="rgb(121,121,121)" stroke-width="1" opacity="1" d="M 82.5 271 L 84 276.5 L 83 276.5 L 82.5 271 Z " /><path fill="rgb(121,121,121)" stroke="rgb(121,121,121)" stroke-width="1" opacity="1" d="M 157.5 272 L 161 272.5 L 153.5 274 L 153.5 273 L 157.5 272 Z " /><path fill="rgb(121,121,121)" stroke="rgb(121,121,121)" stroke-width="1" opacity="1" d="M 145.5 274 L 152 274.5 L 146.5 276 L 139.5 276 L 139.5 275 Q 144.3 276.3 145.5 274 Z " /><path fill="rgb(121,121,121)" stroke="rgb(121,121,121)" stroke-width="1" opacity="1" d="M 121.5 276 L 136 276.5 L 126.5 277 L 125.5 278 L 110 278 L 109.5 287 L 108 279.5 L 110.5 277 L 120.5 277 L 121.5 276 Z " /><path fill="rgb(121,121,121)" stroke="rgb(121,121,121)" stroke-width="1" opacity="1" d="M 34.5 277 L 36 282.5 L 36 289.5 L 35 289.5 L 34.5 277 Z " /><path fill="rgb(121,121,121)" stroke="rgb(121,121,121)" stroke-width="1" opacity="1" d="M 84.5 279 L 86 282.5 L 85 282.5 L 84.5 279 Z " /><path fill="rgb(121,121,121)" stroke="rgb(121,121,121)" stroke-width="1" opacity="1" d="M 477.5 283 L 478 290.5 L 476.5 294 L 476 290.5 L 477.5 283 Z " /><path fill="rgb(121,121,121)" stroke="rgb(121,121,121)" stroke-width="1" opacity="1" d="M 86.5 284 L 88 288.5 L 87 288.5 L 86.5 284 Z " /><path fill="rgb(121,121,121)" stroke="rgb(121,121,121)" stroke-width="1" opacity="1" d="M 42.5 285 L 44 292.5 L 43 292.5 L 42.5 285 Z " /><path fill="rgb(121,121,121)" stroke="rgb(121,121,121)" stroke-width="1" opacity="1" d="M 168.5 286 L 172 296.5 L 171 296.5 L 168.5 286 Z " /><path fill="rgb(121,121,121)" stroke="rgb(121,121,121)" stroke-width="1" opacity="1" d="M 110.5 289 L 112 303.5 L 110.5 310 L 110.5 289 Z " /><path fill="rgb(121,121,121)" stroke="rgb(121,121,121)" stroke-width="1" opacity="1" d="M 88.5 290 Q 93.8 303.7 104.5 312 L 107 313.5 L 105.5 314 L 98 307.5 Q 90.8 300.3 88.5 290 Z " /><path fill="rgb(121,121,121)" stroke="rgb(121,121,121)" stroke-width="1" opacity="1" d="M 36.5 291 L 38 301.5 L 37 301.5 L 36.5 291 Z " /><path fill="rgb(121,121,121)" stroke="rgb(121,121,121)" stroke-width="1" opacity="1" d="M 44.5 296 Q 46.8 298.8 46 304.5 L 45 304.5 L 44.5 296 Z " /><path fill="rgb(121,121,121)" stroke="rgb(121,121,121)" stroke-width="1" opacity="1" d="M 172.5 298 L 174 302.5 L 173 302.5 L 172.5 298 Z " /><path fill="rgb(121,121,121)" stroke="rgb(121,121,121)" stroke-width="1" opacity="1" d="M 475.5 298 L 476 300.5 L 474.5 305 L 474 300.5 L 475.5 298 Z " /><path fill="rgb(121,121,121)" stroke="rgb(121,121,121)" stroke-width="1" opacity="1" d="M 38.5 304 L 40 309.5 L 39 309.5 L 38.5 304 Z " /><path fill="rgb(121,121,121)" stroke="rgb(121,121,121)" stroke-width="1" opacity="1" d="M 174.5 304 L 178 314.5 L 177 314.5 L 174 306.5 L 174.5 304 Z " /><path fill="rgb(121,121,121)" stroke="rgb(121,121,121)" stroke-width="1" opacity="1" d="M 46.5 306 L 48 310.5 L 47 310.5 L 46.5 306 Z " /><path fill="rgb(121,121,121)" stroke="rgb(121,121,121)" stroke-width="1" opacity="1" d="M 473.5 306 L 474 310.5 L 472.5 314 L 472 310.5 L 473.5 306 Z " /><path fill="rgb(121,121,121)" stroke="rgb(121,121,121)" stroke-width="1" opacity="1" d="M 40.5 311 L 42 317.5 L 41 317.5 L 40.5 311 Z " /><path fill="rgb(121,121,121)" stroke="rgb(121,121,121)" stroke-width="1" opacity="1" d="M 109.5 311 L 110 314 L 108 313.5 L 109.5 311 Z " /><path fill="rgb(121,121,121)" stroke="rgb(121,121,121)" stroke-width="1" opacity="1" d="M 48.5 313 L 52 324.5 L 50 323.5 L 48.5 313 Z " /><path fill="rgb(121,121,121)" stroke="rgb(121,121,121)" stroke-width="1" opacity="1" d="M 471.5 315 L 472 317.5 L 470.5 320 L 470 317.5 L 471.5 315 Z " /><path fill="rgb(121,121,121)" stroke="rgb(121,121,121)" stroke-width="1" opacity="1" d="M 178.5 316 L 182 325.5 L 181 325.5 L 178.5 316 Z " /><path fill="rgb(121,121,121)" stroke="rgb(121,121,121)" stroke-width="1" opacity="1" d="M 42.5 319 L 44 323.5 L 43 323.5 L 42.5 319 Z " /><path fill="rgb(121,121,121)" stroke="rgb(121,121,121)" stroke-width="1" opacity="1" d="M 469.5 321 L 470 324.5 L 468.5 327 L 468 324.5 L 469.5 321 Z " /><path fill="rgb(121,121,121)" stroke="rgb(121,121,121)" stroke-width="1" opacity="1" d="M 44.5 325 L 56 353.5 L 54 352.5 L 46 333.5 L 44.5 325 Z " /><path fill="rgb(121,121,121)" stroke="rgb(121,121,121)" stroke-width="1" opacity="1" d="M 52.5 327 L 54 330.5 L 53 330.5 L 52.5 327 Z " /><path fill="rgb(121,121,121)" stroke="rgb(121,121,121)" stroke-width="1" opacity="1" d="M 182.5 327 L 184 329.5 L 182 328.5 L 182.5 327 Z " /><path fill="rgb(121,121,121)" stroke="rgb(121,121,121)" stroke-width="1" opacity="1" d="M 467.5 328 L 468 329.5 L 466.5 332 L 466 330.5 L 467.5 328 Z " /><path fill="rgb(121,121,121)" stroke="rgb(121,121,121)" stroke-width="1" opacity="1" d="M 184.5 331 L 186 334.5 L 184 333.5 L 184.5 331 Z " /><path fill="rgb(121,121,121)" stroke="rgb(121,121,121)" stroke-width="1" opacity="1" d="M 54.5 332 L 56 335.5 L 54 334.5 L 54.5 332 Z " /><path fill="rgb(121,121,121)" stroke="rgb(121,121,121)" stroke-width="1" opacity="1" d="M 465.5 333 L 466 335.5 L 462.5 343 L 462 340.5 L 465.5 333 Z " /><path fill="rgb(121,121,121)" stroke="rgb(121,121,121)" stroke-width="1" opacity="1" d="M 186.5 336 L 188 338.5 L 186 337.5 L 186.5 336 Z " /><path fill="rgb(121,121,121)" stroke="rgb(121,121,121)" stroke-width="1" opacity="1" d="M 56.5 337 L 58 340.5 L 57 340.5 L 56.5 337 Z " /><path fill="rgb(121,121,121)" stroke="rgb(121,121,121)" stroke-width="1" opacity="1" d="M 188.5 340 Q 191.7 342.3 191 348.5 L 190 348.5 L 190 344.5 L 188.5 340 Z " /><path fill="rgb(121,121,121)" stroke="rgb(121,121,121)" stroke-width="1" opacity="1" d="M 58.5 342 L 68 360.5 L 66 359.5 L 58 343.5 L 58.5 342 Z " /><path fill="rgb(121,121,121)" stroke="rgb(121,121,121)" stroke-width="1" opacity="1" d="M 461.5 344 L 462 345.5 L 460 346.5 L 461.5 344 Z " /><path fill="rgb(121,121,121)" stroke="rgb(121,121,121)" stroke-width="1" opacity="1" d="M 459.5 348 L 460 349.5 L 452.5 363 L 453 361.5 L 459.5 348 Z " /><path fill="rgb(121,121,121)" stroke="rgb(121,121,121)" stroke-width="1" opacity="1" d="M 189.5 350 L 190 355.5 L 188.5 358 L 188 354.5 L 189.5 350 Z " /><path fill="rgb(121,121,121)" stroke="rgb(121,121,121)" stroke-width="1" opacity="1" d="M 56.5 355 L 62 364.5 L 60 363.5 L 56 356.5 L 56.5 355 Z " /><path fill="rgb(121,121,121)" stroke="rgb(121,121,121)" stroke-width="1" opacity="1" d="M 187.5 360 L 188 361.5 L 186.5 364 L 186 361.5 L 187.5 360 Z " /><path fill="rgb(121,121,121)" stroke="rgb(121,121,121)" stroke-width="1" opacity="1" d="M 68.5 362 Q 85.6 392.4 110.5 415 L 128.5 430 L 133.5 431 L 138.5 426 L 153 419.5 L 152 412.5 L 146 402.5 Q 147.7 398.2 149.5 401 L 156.5 406 L 158 405.5 Q 159.1 408.8 156.5 408 L 150.5 402 L 148 402 L 148 404.5 L 153 412.5 L 154 420.5 L 140.5 426 L 133.5 432 L 130.5 432 Q 109.8 418.2 94 399.5 L 92 396.5 L 78 379.5 L 68 363.5 L 68.5 362 Z " /><path fill="rgb(121,121,121)" stroke="rgb(121,121,121)" stroke-width="1" opacity="1" d="M 451.5 364 L 452 365.5 Q 432.6 399.1 404.5 424 L 375.5 446 L 352.5 458 L 353.5 456 L 373.5 446 L 406 422 Q 404.9 419.3 407.5 420 Q 433.9 396.4 451.5 364 Z " /><path fill="rgb(121,121,121)" stroke="rgb(121,121,121)" stroke-width="1" opacity="1" d="M 185.5 365 L 186 366.5 Q 179.8 380.8 168.5 390 L 161.5 387 L 157.5 387 Q 154.8 388.3 157 389.5 L 158 392.5 L 157 392.5 L 155 388.5 L 156 386 L 162.5 386 L 167.5 389 L 174 383.5 Q 181.3 375.8 185.5 365 Z " /><path fill="rgb(121,121,121)" stroke="rgb(121,121,121)" stroke-width="1" opacity="1" d="M 62.5 366 Q 81.3 399.7 109.5 424 Q 127.3 439.7 149 451.5 L 147.5 452 Q 111.8 431.7 86 401.5 L 68 377.5 L 62 367.5 L 62.5 366 Z " /><path fill="rgb(121,121,121)" stroke="rgb(121,121,121)" stroke-width="1" opacity="1" d="M 158.5 396 L 159 399.5 L 158 399.5 L 158.5 396 Z " /><path fill="rgb(121,121,121)" stroke="rgb(121,121,121)" stroke-width="1" opacity="1" d="M 150.5 452 L 165 459.5 L 163.5 460 L 151.5 454 L 150.5 452 Z " /><path fill="rgb(121,121,121)" stroke="rgb(121,121,121)" stroke-width="1" opacity="1" d="M 349.5 458 L 351 458.5 L 343.5 462 L 343.5 461 L 349.5 458 Z " /><path fill="rgb(121,121,121)" stroke="rgb(121,121,121)" stroke-width="1" opacity="1" d="M 166.5 460 L 180 465.5 L 177.5 466 L 166.5 461 L 166.5 460 Z " /><path fill="rgb(121,121,121)" stroke="rgb(121,121,121)" stroke-width="1" opacity="1" d="M 340.5 462 L 342 462.5 L 333.5 466 L 333.5 465 L 340.5 462 Z " /><path fill="rgb(121,121,121)" stroke="rgb(121,121,121)" stroke-width="1" opacity="1" d="M 181.5 466 L 192 469.5 L 189.5 470 L 181.5 467 L 181.5 466 Z " /><path fill="rgb(121,121,121)" stroke="rgb(121,121,121)" stroke-width="1" opacity="1" d="M 329.5 466 L 332 466.5 L 327.5 468 L 327.5 467 L 329.5 466 Z " /><path fill="rgb(121,121,121)" stroke="rgb(121,121,121)" stroke-width="1" opacity="1" d="M 323.5 468 L 326 468.5 L 309.5 474 L 305.5 474 L 305.5 473 L 312.5 472 L 323.5 468 Z " /><path fill="rgb(121,121,121)" stroke="rgb(121,121,121)" stroke-width="1" opacity="1" d="M 193.5 470 L 199 471.5 L 195.5 472 L 193.5 470 Z " /><path fill="rgb(121,121,121)" stroke="rgb(121,121,121)" stroke-width="1" opacity="1" d="M 200.5 472 L 208 473.5 L 203.5 474 L 200.5 473 L 200.5 472 Z " /><path fill="rgb(121,121,121)" stroke="rgb(121,121,121)" stroke-width="1" opacity="1" d="M 209.5 474 L 217 475.5 L 212.5 476 L 209.5 475 L 209.5 474 Z " /><path fill="rgb(121,121,121)" stroke="rgb(121,121,121)" stroke-width="1" opacity="1" d="M 299.5 474 L 304 474.5 Q 301.3 476.8 295.5 476 L 295.5 475 L 299.5 474 Z " /><path fill="rgb(121,121,121)" stroke="rgb(121,121,121)" stroke-width="1" opacity="1" d="M 219.5 476 L 232 477.5 L 224.5 478 L 219.5 477 L 219.5 476 Z " /><path fill="rgb(121,121,121)" stroke="rgb(121,121,121)" stroke-width="1" opacity="1" d="M 287.5 476 L 294 476.5 L 288.5 478 L 281.5 478 L 281.5 477 Q 286.2 478.3 287.5 476 Z " /><path fill="rgb(121,121,121)" stroke="rgb(121,121,121)" stroke-width="1" opacity="1" d="M 234.5 478 L 265.5 479 L 266.5 478 L 278.5 478 L 278.5 479 Q 272.3 477.2 270.5 480 L 242.5 480 Q 240.7 477.2 234.5 479 L 234.5 478 Z " /><path fill="rgb(0,0,0)" stroke="rgb(0,0,0)" stroke-width="1" opacity="1" d="M 510.5 2 L 511 509.5 L 509.5 509 L 0 509 L 0 3 L 509.5 3 L 510.5 2 Z M 241 31 L 235 33 L 224 33 Q 220 36 213 35 L 209 37 L 204 37 L 201 39 L 196 39 Q 194 42 189 41 L 187 43 L 184 43 L 168 49 L 141 63 L 123 75 L 105 91 Q 102 90 103 93 L 99 96 Q 100 98 97 97 L 97 99 L 95 99 L 95 101 L 93 101 L 93 103 L 91 103 L 91 105 L 89 105 L 75 123 L 63 141 L 47 173 L 47 177 L 43 184 L 41 194 L 39 196 L 37 211 L 35 213 Q 36 221 33 226 L 33 242 L 31 249 L 31 264 L 33 271 L 33 287 Q 36 291 35 300 L 37 303 L 39 317 L 41 319 L 41 323 L 43 325 L 43 329 L 47 337 L 49 345 L 61 369 L 75 390 Q 89 408 106 423 Q 108 422 107 425 L 131 443 L 151 455 L 170 463 L 172 465 L 175 465 L 177 467 L 192 471 L 195 473 L 200 473 L 203 475 L 218 477 L 222 479 L 233 479 L 239 481 L 275 481 L 281 479 L 291 479 Q 294 476 302 477 Q 304 474 311 475 L 314 473 L 318 473 L 321 471 L 325 471 L 355 459 L 370 451 L 391 437 L 400 429 Q 402 430 401 427 L 408 423 Q 424 408 437 391 L 451 370 L 453 364 L 461 351 L 463 344 L 465 342 L 465 339 L 467 337 L 467 333 Q 470 332 469 328 L 471 326 L 471 321 L 473 319 Q 472 313 475 312 Q 474 305 477 303 L 477 295 L 479 292 L 480 276 L 481 275 L 481 238 L 479 229 L 479 221 L 477 218 L 477 211 Q 474 208 475 201 L 473 199 L 471 188 L 467 180 L 465 172 L 463 170 L 463 167 L 461 165 L 461 162 L 453 149 L 451 143 L 427 110 Q 409 89 388 73 L 366 59 L 346 49 L 343 49 L 341 47 L 338 47 L 336 45 L 327 43 L 324 41 L 320 41 L 318 39 L 313 39 L 310 37 Q 303 38 301 35 L 294 35 L 290 33 Q 278 35 272 31 L 241 31 Z " /><path fill="rgb(0,0,0)" stroke="rgb(0,0,0)" stroke-width="1" opacity="1" d="M 244.5 42 L 283.5 43 L 288.5 45 L 296.5 45 Q 299.2 47.8 305.5 47 L 308.5 49 L 313.5 49 Q 315.2 51.8 320.5 51 L 322.5 53 L 326.5 53 L 328.5 55 L 331.5 55 L 358.5 67 L 380.5 81 L 401 97 Q 399.9 99.7 402.5 99 L 413 109.5 L 413 111 Q 415.7 109.9 415 112.5 L 429 128.5 L 443 149.5 L 453 169.5 L 453 172.5 L 457 178.5 L 457 182.5 L 461 189.5 L 461 194.5 L 463 197.5 Q 462.2 202.8 465 204.5 L 465 209.5 L 467 212.5 L 467 221.5 L 469 225.5 L 469 235.5 L 471 243 L 465 241 L 463 237.5 L 463 229.5 L 460.5 227 Q 454.3 227.7 453 223.5 L 453 218.5 L 455 212.5 L 453 209 L 451 209 Q 452.1 206.3 449.5 207 L 439 196.5 L 439 195 L 437 195 L 437 193 Q 434.3 194.1 435 191.5 L 422.5 179 L 421 179 L 421 175 L 422.5 175 L 425 170.5 L 411 158.5 L 403 147 Q 400.3 148.1 401 145.5 L 389.5 137 Q 384.2 137.8 382.5 135 L 369.5 135 L 347.5 121 L 319.5 111 Q 313.5 112 311.5 109 L 304.5 109 L 300.5 107 L 291.5 107 L 285.5 105 L 243.5 105 L 238.5 107 L 230.5 107 Q 228.2 110.2 221.5 109 L 204.5 115 L 192.5 121 L 175 136.5 L 173.5 139 Q 154.9 145.9 143 159.5 L 144.5 163 L 149 164.5 L 123.5 177 L 107 187 Q 108.1 189.7 105.5 189 L 91 202.5 L 83 214.5 L 79 223.5 L 79 226.5 L 77 228.5 Q 77.6 234.6 75 237.5 L 75 253.5 Q 77.8 255.2 77 260.5 L 79 262.5 L 81 275.5 L 85 283.5 L 85 287.5 L 87 292.5 Q 93.4 306.1 104.5 315 L 108.5 316 Q 115.4 309.4 113 293.5 L 111 286.5 L 111 279 L 130.5 279 Q 137.7 275.7 149.5 277 L 152.5 275 L 158.5 275 L 165.5 273 L 172 268.5 L 173 263.5 L 180.5 255 L 187 251 L 191 245.5 L 191 240.5 Q 190 238 185.5 239 L 164.5 245 L 149.5 251 L 147.5 253 L 144.5 253 L 142.5 255 L 109.5 267 L 109 265.5 L 113 263 Q 111.9 260.3 114.5 261 L 120.5 257 Q 125.8 257.8 127.5 255 L 139.5 255 L 143 253 L 143 251 L 145 251 Q 143.9 248.3 146.5 249 L 151.5 245 L 161.5 241 Q 167.5 242 169.5 239 L 176.5 239 L 179.5 237 L 187.5 237 Q 190.5 234 197.5 235 L 200.5 233 L 210.5 231 L 216 226.5 L 212.5 224 L 210.5 224 L 199.5 223 Q 198.8 220.3 194.5 221 L 183 210.5 L 179 202.5 L 177 187.5 L 180 186 L 181 195.5 L 183 200.5 L 190.5 209 L 198.5 213 L 211.5 213 L 213 212.5 Q 210 213.5 211 218.5 L 213.5 221 L 224.5 221 Q 226 217.5 232.5 219 L 239.5 223 L 263.5 223 L 264.5 222 L 279.5 222 L 289 225 L 288.5 227 L 256.5 227 Q 247 223 231.5 225 L 230 227.5 L 233 232.5 L 210.5 233 L 206 236.5 L 205 240.5 L 207.5 243 L 231.5 243 L 232.5 242 L 252.5 242 L 260 243.5 L 256.5 245 L 232.5 245 L 223.5 247 L 209.5 247 Q 206.5 250 199.5 249 L 193 252.5 L 193 258.5 L 196 263 L 193.5 263 L 187 268.5 L 181 277 L 179 277 L 177 281 L 166.5 281 L 166 283.5 L 171 301.5 L 173 303.5 L 175 313.5 L 177 315.5 L 179 324.5 L 181 326.5 L 185 338.5 L 189 344.5 L 189 348.5 Q 186.1 352.1 187 359.5 L 185 361.5 L 181 372.5 L 168.5 387 Q 164.3 387.8 163.5 385 L 156.5 385 Q 153.5 385.5 154 389.5 Q 159.1 392.9 157 403.5 L 155 404.5 L 151.5 400 L 147.5 399 Q 144.5 399.5 145 403.5 L 151 413.5 L 151 420 L 145.5 421 L 135 427 Q 136.1 429.7 133.5 429 L 130.5 430 L 105 409 L 105 407 Q 102.3 408.1 103 405.5 Q 90.6 395 83 381 Q 80 382.3 81 378.5 L 77 374.5 L 77 372.5 L 67 357.5 L 61 345.5 L 61 342.5 L 57 336.5 L 55 328.5 L 53 326.5 L 51 314.5 L 49 312.5 Q 49.7 306.8 47 304.5 Q 48 297.5 45 294.5 L 45 287.5 L 43 284.5 L 42 250.5 L 43 249.5 L 43 227.5 L 45 224.5 L 45 217.5 Q 48.4 214.9 47 207.5 L 49 204.5 L 49 199.5 L 51 197.5 L 53 186.5 L 55 184.5 L 57 175.5 L 61 169.5 L 61 166.5 Q 81.2 124.2 114.5 95 L 147.5 71 L 175.5 57 L 178.5 57 L 180.5 55 L 183.5 55 L 192.5 51 L 196.5 51 L 199.5 49 L 204.5 49 L 206.5 47 Q 213.5 48 216.5 45 L 224.5 45 L 228.5 43 L 243.5 43 L 244.5 42 Z " /><path fill="rgb(0,0,0)" stroke="rgb(0,0,0)" stroke-width="1" opacity="1" d="M 267.5 152 L 286.5 163 L 289.5 163 L 309 170.5 L 307.5 173 Q 298 177 293 185.5 Q 293.8 187.8 291.5 187 L 287.5 181 L 266.5 191 L 244.5 192 Q 242.7 189.3 236.5 191 L 227 187 L 227 184.5 L 220.5 177 L 216.5 175 L 201.5 175 L 198.5 177 L 193.5 177 Q 192.5 180 187.5 179 L 185.5 181 L 185 177.5 L 187 173 L 205 161 L 208.5 166 L 214.5 165 L 216.5 163 Q 221.8 163.8 223.5 161 L 228.5 161 L 231.5 159 Q 238.5 160 241.5 157 L 248.5 157 L 251.5 155 L 258.5 155 L 261.5 153 Q 266.2 154.2 267.5 152 Z M 269 160 L 266 163 L 265 173 L 263 175 L 239 175 L 236 177 L 234 181 L 237 183 Q 243 182 246 185 L 260 185 L 261 186 L 276 185 Q 282 183 285 179 Q 286 172 284 169 L 269 160 Z " /><path fill="rgb(0,0,0)" stroke="rgb(0,0,0)" stroke-width="1" opacity="1" d="M 169.5 157 Q 174.3 156.3 175 159.5 L 183 172.5 L 177 177 L 172.5 171 L 157 163.5 L 169.5 157 Z " /><path fill="rgb(227,227,227)" stroke="rgb(227,227,227)" stroke-width="1" opacity="1" d="M 251.5 34 L 278.5 35 L 286.5 37 L 293.5 37 L 331.5 47 Q 371.5 62.3 401 87 Q 399.9 89.7 402.5 89 Q 422.3 104.7 435 126 Q 437.7 124.9 437 127.5 L 447 141.5 L 449 147.5 L 457 160.5 L 471 197.5 L 471 203.5 L 473 206.5 L 473 211.5 L 475 215.5 L 475 223.5 L 477 230.5 L 478 264.5 L 477 265.5 L 477 281.5 L 475 288.5 L 475 297.5 L 473 300.5 L 471 314.5 L 467 323.5 L 467 327.5 L 461 340.5 L 461 343.5 L 451 363.5 L 437 385.5 Q 424.4 403.4 408.5 418 Q 377.1 448.1 332.5 465 L 294.5 475 L 288.5 475 L 280.5 477 L 268.5 477 L 267.5 478 L 245.5 478 L 244.5 477 L 231.5 477 L 230.5 476 L 207.5 473 L 203.5 471 L 192.5 469 L 165.5 459 L 142.5 447 L 124.5 435 L 107 421 Q 108.1 418.3 105.5 419 L 93 406.5 L 93 405 Q 90.3 406.1 91 403.5 L 81 392.5 L 79 388 Q 76.3 389.1 77 386.5 Q 65.5 372 57 354.5 L 43 319.5 L 43 313.5 L 39 303.5 L 37 282.5 L 35 276.5 L 35 235.5 L 37 229.5 L 39 208.5 L 43 198.5 L 43 192.5 L 47 185.5 L 47 181.5 L 53 166.5 L 57 160.5 L 57 157.5 L 73 130 Q 75.7 131.1 75 128.5 L 95 103 L 97 103 L 97 101 L 99 101 L 99 99 L 101 99 L 101 97 L 103 97 L 103 95 L 105 95 Q 103.9 92.3 106.5 93 Q 121 78 139.5 67 L 175.5 49 L 178.5 49 L 200.5 41 L 219.5 37 L 226.5 37 L 234.5 35 L 250.5 35 L 251.5 34 Z M 238 39 L 237 40 L 222 41 L 217 43 L 203 45 L 181 53 L 178 53 L 149 67 L 114 92 L 87 120 L 75 136 L 75 138 L 61 160 L 61 163 L 53 178 L 51 187 L 49 189 L 49 193 L 47 196 L 47 201 L 43 211 L 43 220 L 41 224 Q 42 232 39 237 L 39 276 Q 42 281 41 290 L 43 294 L 43 302 L 47 312 L 47 317 L 49 324 L 51 326 L 53 335 L 55 337 L 57 345 L 63 357 L 77 380 L 85 390 Q 84 392 87 391 Q 91 399 99 406 Q 98 408 101 407 L 103 411 L 130 433 L 134 433 L 141 427 L 149 423 L 153 423 L 155 421 L 155 415 L 149 405 Q 148 402 151 403 L 153 407 Q 153 409 158 409 L 159 408 L 159 400 L 160 399 L 159 391 L 158 388 L 162 388 L 169 391 Q 180 382 187 368 L 192 349 L 191 342 L 183 327 L 175 301 L 173 299 L 173 294 L 171 292 L 169 284 L 172 285 L 179 283 L 189 270 L 200 264 L 196 255 L 198 253 L 213 250 L 244 249 L 245 248 L 264 247 L 266 246 L 265 242 L 256 239 L 222 239 L 221 240 L 210 240 L 209 237 L 212 236 L 233 236 L 234 235 Q 237 236 235 231 L 234 228 L 273 230 L 274 231 L 293 230 L 294 227 Q 290 221 283 219 L 259 219 L 258 220 Q 240 222 232 215 L 229 215 L 220 219 Q 215 220 214 217 L 220 213 Q 223 211 222 206 L 219 206 L 211 210 Q 197 212 192 206 L 188 203 L 183 193 L 183 184 L 204 178 Q 214 176 220 180 Q 224 183 225 189 L 233 193 L 242 195 L 262 195 L 276 191 L 286 185 Q 288 184 287 188 L 291 190 L 293 190 Q 300 179 313 173 L 314 170 L 311 167 L 286 159 L 270 149 L 232 156 L 209 163 L 206 157 L 186 170 L 177 159 Q 178 155 175 156 L 174 153 L 155 161 L 148 161 L 147 160 L 166 145 L 176 141 L 178 138 Q 190 124 208 117 L 228 111 L 233 111 L 239 109 L 248 109 L 249 108 L 281 108 L 282 109 L 292 109 L 322 115 L 335 119 L 353 127 L 370 139 L 386 139 L 396 145 Q 398 144 397 147 L 399 147 L 399 149 L 401 149 L 409 161 L 421 172 Q 422 174 419 173 L 418 176 L 419 180 Q 418 182 421 181 L 421 183 L 425 186 Q 424 188 427 187 L 429 191 L 433 194 Q 432 196 435 195 L 435 197 L 450 211 L 451 212 L 451 226 Q 453 230 459 229 L 459 235 L 462 242 L 470 246 L 473 245 L 473 233 Q 469 227 471 217 L 469 214 L 467 201 L 461 185 L 461 181 L 457 174 L 457 171 L 439 138 L 419 113 Q 420 110 417 111 L 417 110 L 403 95 Q 400 96 401 93 Q 383 78 361 65 Q 341 54 318 47 L 302 43 L 284 41 L 283 40 L 276 40 L 275 39 L 238 39 Z M 473 247 L 470 248 L 469 251 Q 468 259 470 263 L 474 264 L 474 248 L 473 247 Z " /><path fill="rgb(227,227,227)" stroke="rgb(227,227,227)" stroke-width="1" opacity="1" d="M 269.5 163 L 278.5 168 L 283 172.5 L 283 175.5 L 281 179 L 269.5 183 L 257.5 183 L 256.5 182 L 241.5 181 L 238 179.5 L 239.5 178 L 261.5 178 L 269 172.5 L 269.5 163 Z " /><path fill="rgb(227,227,227)" stroke="rgb(227,227,227)" stroke-width="1" opacity="1" d="M 153.5 166 L 173 175 L 174 177.5 L 174 193.5 L 177 205.5 Q 181.3 215.2 189.5 221 Q 196.7 226.8 209 227.5 L 200.5 231 L 164.5 237 Q 150.1 240.6 141 249.5 Q 141.8 251.8 139.5 251 L 138.5 252 L 127.5 252 L 118.5 255 Q 110.1 258.6 105 265.5 L 104 270 L 113.5 269 L 125.5 265 L 174.5 245 L 188 243 L 180.5 252 L 173 258.5 L 167.5 269 L 152.5 273 L 146.5 273 L 138.5 275 L 109.5 276 L 107 278.5 L 109 288.5 L 109 310.5 L 106.5 312 L 97 303.5 L 89 289.5 L 89 285.5 L 85 278.5 L 85 273.5 Q 82.2 271.8 83 266.5 L 81 264.5 L 81 259.5 L 78 250.5 L 78 242.5 L 81 226.5 L 85 219.5 L 85 216.5 Q 92 204 102.5 195 L 122.5 181 L 153.5 166 Z " /><path fill="rgb(227,227,227)" stroke="rgb(227,227,227)" stroke-width="1" opacity="1" d="M 182.5 177 L 183 178.5 L 182 182 L 179.5 183 L 179 180.5 L 182.5 177 Z " /></svg>