<?xml version="1.0" encoding="UTF-8"?><svg id="Layer_1" xmlns="http://www.w3.org/2000/svg" viewBox="0 0 1372.37 1372.25"><defs><style>.cls-1{fill:#fff;}</style></defs><path class="cls-1" d="M658.44.55c-130.2,5.2-255.95,47.25-362.75,121.35-34.9,24.2-62.85,47.65-94.5,79.35-21.8,21.75-35.25,36.65-52,57.75-43.8,54.95-78.55,115.7-104,181.75-58.05,150.65-60.25,321.35-6.15,474.25,27.5,77.75,69.7,151.3,122.65,213.75,23.5,27.75,54.25,58.5,82,82,73.2,62.05,159.85,108.45,252,135,42.6,12.3,86.35,20.35,131,24.2,23.25,2,30.1,2.3,59.5,2.3,28.5,0,36.1-.3,57.25-2.05,115.6-9.55,227.05-48.4,323.35-112.75,69.9-46.75,130.75-105.85,179.45-174.45,55.1-77.5,93.7-166.5,112.45-259.25,8.8-43.4,12.85-81.9,13.6-128,1.65-107.55-21.95-213.6-69.15-310.15-28.1-57.65-61.8-107.65-106.15-157.6-10-11.3-41.25-42.55-52.55-52.55-40.85-36.25-79.2-63.6-125.25-89.3C910.24,25.3,784.54-4.5,658.44.55ZM711.69,23c32.5,1.35,63.8,4.8,94.25,10.3,149.4,27.2,285.25,105.45,384.75,221.7,50.2,58.6,90.7,127.15,117.25,198.45,23.3,62.6,36,122.35,40.8,192.25l.35,4.95-3.6-.35c-8.55-.85-14.95-3.7-20.4-9.1-2.8-2.75-4.1-4.5-5.65-7.75-3.4-7.15-4.1-10.7-4.35-22.6l-.25-10.35h-5.1c-5.6,0-10.7-.9-13.65-2.4-2.85-1.45-5.85-5-6.95-8.15-1.3-3.65-1.2-12.95.2-24.45.55-4.8,1.15-10.25,1.35-12.1.3-3.85,1.5-2.35-9.25-11.65-9.45-8.2-24.15-22.9-43.75-43.75-18.8-20-36.1-37.35-44.9-44.95-3.2-2.8-5.5-5.2-5.75-6-.2-.7-.35-2.55-.35-4.05.05-3.75,1.6-6.35,5.45-9.2,5.3-3.9,7.3-6.5,7.3-9.6,0-.95-.6-1.5-3.4-2.9-8.65-4.35-20.2-13.6-28.4-22.7-4.65-5.15-10.2-12-25.7-31.65-8.1-10.25-19-21.75-25.5-26.9-13.1-10.45-26.65-16.35-43.4-18.9-6.8-1-24.55-1.05-32.2-.05l-5.35.7-4.4-3.75c-35.65-30.15-90.1-55.3-155.95-72-110.25-27.9-231.65-27.2-319.2,1.95-51.85,17.25-92.1,43.45-115.65,75.3l-4.1,5.6-5.5,1.85c-23.7,8-35.15,15.3-68,43-5.75,4.85-13.5,11.1-17.15,13.85-3.65,2.8-6.5,5.2-6.25,5.45.8.8,8.45,3.55,12.6,4.55,6.15,1.45,14.75,1.45,20.8-.1,6.75-1.7,14.45-4.8,26.05-10.65,16-8,29.15-13.35,30.95-12.65.8.3,6.05,6.75,8.6,10.55,1.1,1.65,4.5,7.4,7.65,12.75,7.45,12.9,10.9,17.9,15.8,22.9l4.05,4.1-1.3,4c-1.3,3.75-1.65,4.25-6.85,9.6-6.45,6.6-9.3,10.25-12.95,16.5-2.6,4.35-5.75,11.2-5.75,12.4,0,.4.55.45,1.65.25,1.6-.35,9.5-2.6,13.95-3.95l2.4-.75-.35,5.85c-.5,9.7,1.1,21.9,4.2,31.85,1.8,5.85,7.15,16.35,10.85,21.25,12.2,16.2,29.6,25.95,50.2,28.05,15.95,1.65,35.65-3.5,49.25-12.85,2.15-1.5,4.15-2.7,4.4-2.7.65,0,.55,6.3-.15,8.6-.3,1.1-1.55,3.05-2.7,4.35-2.1,2.35-3.05,2.9-10.7,6.45-5.85,2.75-8.1,4.5-9.7,7.65-.95,2-1.3,3.4-1.3,5.7,0,3.45.4,3.9,5.3,6.4,9.15,4.65,24.75,2.1,45.4-7.35,2.15-1,4.1-1.8,4.35-1.8.2,0,2,1.2,3.95,2.65,6.25,4.75,15,8.6,24.5,10.85,13.35,3.1,37.7,3.3,63.85.5,11.9-1.3,31.3-2.5,39.9-2.5,24.55,0,41.2,4.9,53.1,15.7,3.75,3.4,7.95,8.8,7.2,9.25-.3.2-5.95.75-12.45,1.2-32.1,2.25-57.75,1.55-110.6-2.95-57.6-4.9-59.75-5.05-60.2-4.25-.25.35-1,.45-2.05.25-1.55-.25-1.7-.2-2.25,1.55-1.05,3.25.05,6.4,4.55,13,3.8,5.65,3.75,7.5-.4,9.35-2.05.9-3.35,1-11.6,1-5.1,0-14.6-.25-21.05-.6-26.6-1.45-40.7,1.5-46.35,9.7-1.7,2.5-3.15,6.5-3.15,8.85,0,1.65.3,1.7,13,2.5,11.2.7,30.35.35,54.75-1.05,49.2-2.75,67.5-2.55,85.75,1.05,9.35,1.8,20.15,5.9,26.1,9.8,1.05.7,1.85,1.4,1.75,1.5-.3.25-11.5,2.05-18.35,2.85-17.4,2.15-34.35,3.3-70.5,4.8-50.3,2.1-68.65,3.65-92.5,7.8-13.1,2.25-33.4,7.8-36.25,9.9-.9.65-1,1.35-1,6.9,0,5.8.1,6.3,1.35,8.45.75,1.3,3.1,4.2,5.15,6.45,3.6,3.95,5.45,6.65,5.85,8.65.1.75-.7,1.2-4.35,2.35-11.75,3.8-21.5,11.95-38,31.75-14.85,17.9-20.35,23.15-27.95,26.85-3.4,1.6-4.5,1.9-7.3,1.9-3.9,0-7.55-1-11.75-3.2-1.65-.85-3.2-1.65-3.45-1.75-.2-.1-.25.3-.05.9.4,1.3-.05,1.3-2.15.05-1.55-.95-1.65-.95-1.4-.15.6,2.25,11.85,37.85,16.1,51.15,18.55,57.8,33.25,96,51.05,132.5l5.25,10.75-.55,5.3c-.7,6.55-3.05,18.95-5.3,27.95-9.8,38.9-29.55,72.35-57.8,97.9-3.6,3.2-6.8,6-7.2,6.25-.5.25-2.15-.7-5.1-2.9-10.95-8.1-22.05-11.1-28.2-7.65-1.65.95-4.95,4.85-4.95,5.85,0,.15,1,1.3,2.2,2.5,8.05,7.95,10.1,24.75,6,48.55-.7,4-1.4,8-1.55,8.85-.15.9-.5,1.65-.75,1.65-.95,0-5.3-4.95-9.5-10.8-6.65-9.25-9.7-11.35-18.3-12.45l-2.6-.35-.8,1.9c-1.7,4.05-.35,7.4,7.8,19.95,9.65,14.8,12.2,21.3,12.25,31.5,0,3.3-.15,6.8-.4,7.8l-.35,1.8-6.15.85c-15.8,2.2-29.45,9.3-50.35,26.2l-9.25,7.5-3.25-2.3c-45.3-31.95-92.1-76.1-129.55-122.1-55.9-68.75-98.1-149.8-122.5-235.25-21.25-74.4-29.3-153.3-23.65-231,12.85-176.9,95.5-340.25,230.7-456,54.05-46.3,115.8-83.9,181.45-110.6,70.4-28.6,145.65-44.9,222.3-48.1,14.1-.6,39.35-.6,53-.05ZM727.84,363.5c9.85,8,20.45,14.9,31.85,20.65,13.65,6.85,22.05,10.1,51.75,20,22.8,7.6,35.15,12.05,45.5,16.4,5.5,2.35,6.05,2.65,5.25,3.3-.55.35-1.15.65-1.35.65-.85,0-13.3,7.2-18.15,10.55-14.25,9.7-30.15,24.9-41.5,39.6l-3,3.9-3-.2c-7.65-.55-12.25-6.15-12.25-14.95v-3.4l-1.95,1.2c-1.15.75-2.1,1.05-2.4.75-.25-.25-3,1.25-6.9,3.85-7.85,5.15-24.9,13.7-34.4,17.2-37.25,13.75-79.45,15.5-118.4,4.8-6.95-1.9-17.65-5.7-21.85-7.7q-2.8-1.35-4.1-5.4c-5.65-17.2-16.3-27.6-32.95-32.1-4.55-1.2-5.45-1.3-16.8-1.3-10.35,0-12.9.15-18.5,1.15-13,2.3-31.65,7.55-53.2,15.05-5.6,1.9-10.3,3.5-10.5,3.5-1.05,0,2.45-18.75,5.25-28.25.25-.7-.3-.45-1.8,1-1.3,1.2-2,1.65-1.8,1.1.15-.5.3-1.1.3-1.35s.95-1.15,2.1-2.1c1.4-1.1,2-1.35,1.75-.75-.15.45-.2.85-.1.85s2.4-1.75,5.1-3.9c2.7-2.2,8.75-6.6,13.4-9.85,23.75-16.55,28.75-20.35,36.25-27.55,4.4-4.2,4.85-4.5,6.2-4.15,2.9.8,4.2,2.75,6.35,9.6,1.65,5.25,3.3,7.6,5.85,8.35,1.7.55,2.4.4,7.85-1.65,28.65-10.65,55.8-17.55,102.75-26.1,28.55-5.2,55.15-10.9,68.75-14.7,1.95-.5,3.85-.95,4.25-1s2.4,1.3,4.4,2.95ZM1349.84,686.75c-.05,9.35-.15,18.7-.35,20.75l-.3,3.75-1.35-5.5c-2.15-8.9-2.6-12.9-2.6-23s.7-15.65,2.85-22.5l1.1-3.5.3,6.5c.2,3.55.35,14.15.35,23.5Z"/><path class="cls-1" d="M370.69,404.8c-.85.35-7,3.15-13.75,6.25-55.25,25.3-82.75,39.65-108.75,56.7-53.15,34.8-86.6,75.2-103.4,124.75-6.95,20.35-11.35,43.9-12.15,64.75l-.3,7.5,2.25,8.25c1.25,4.55,4.9,18.35,8.1,30.75,11.45,44.25,16.85,62.15,25.1,82.75,14.25,35.7,32,60,55.35,75.6,5,3.35,6.05,3.85,6.4,3.2s.65-.7,1.45-.3c.55.3,1.15.4,1.4.25,1.5-.9,4.95-14.05,6-22.75,1.95-16.4,1.1-32.4-3.75-71.15-1.3-10.1-2.2-18.5-2.05-18.65s5.4-.5,11.7-.75c58.25-2.3,83-4.35,114.4-9.25,21.25-3.35,42.5-8.6,56.95-14.05l5-1.9.65-4.5c2.35-16.25,10.75-27.65,34.8-46.95,5.45-4.4,11.6-9.5,13.6-11.4,6.05-5.65,10.1-11.65,11.55-17.15.7-2.5.95-7.85.45-8.35-.15-.15-1.15-.1-2.15.15-1,.2-5.55,1.1-10.1,1.95-17.25,3.25-39.1,9.25-59,16.15-18.1,6.3-33.15,12.3-64.25,25.6-47.95,20.5-66.05,27.5-91.75,35.3-8.4,2.55-28,7.65-31.9,8.25l-2.2.35,1.95-3.1c9.2-14.85,22.85-26.85,39.15-34.4,6.2-2.9,17.8-6.75,25-8.35,8.1-1.8,15.6-2.65,27.75-3.3,15.9-.8,15.35-.65,17.3-3.45.95-1.25,3.8-4.45,6.45-7.1,12.15-12.2,28.75-21.45,51.5-28.65,15.15-4.75,31.35-8.3,62.3-13.55,59.6-10.15,79.05-15.15,101.2-26.15l7.75-3.85-5-.1c-7.75-.2-19.4-1.1-25.25-1.95-34.85-5.1-60.8-22.2-76.2-50.15-8.65-15.7-14.05-35.05-15.8-56.75-.65-8.45-.65-26.3.05-35.85l.55-7.55-2.65-2.75c-3.35-3.4-10.35-8.7-15.95-12.05-5.25-3.15-18.25-9.45-28-13.6-4-1.7-10.2-4.5-13.75-6.2-6.1-2.9-6.65-3.1-8-2.5Z"/><path class="cls-1" d="M724.24,394.75c-.15.45-.3,1.5-.3,2.3,0,1.85-.45,1.85-2.1-.15-.7-.9-1.5-1.45-1.7-1.25s-.4,7.5-.4,16.25l-.05,15.85-1.4,2.85c-1.7,3.5-4,5.55-8.65,7.75-8,3.8-19.35,4.8-39.2,3.45-13.3-.9-25.1-1-30.2-.3-5,.75-11.7,2.9-14.35,4.65-2.4,1.55-4.95,4.9-4.95,6.4,0,.6.95,1.15,3.5,1.9,28.6,8.7,86.35,13.5,109.25,9.1,19.8-3.8,31.55-10.35,36.2-20.05,1.2-2.5,1.3-3.3,1.3-8.75,0-7-.7-9.65-3.65-13.5-3.9-5.15-8.25-7.8-28.7-17.4-6.9-3.25-10-5.25-12.45-7.95-1.5-1.65-1.85-1.85-2.15-1.15Z"/></svg>